<svg width="347" height="157" viewBox="0 0 347 157" fill="none" xmlns="http://www.w3.org/2000/svg">
<rect x="16" y="16" width="19.08" height="19.08" rx="2" fill="#73D13D"/>
<rect x="79.24" y="16" width="19.08" height="19.08" rx="2" fill="#FF4D4F"/>
<rect x="100.32" y="16" width="19.08" height="19.08" rx="2" fill="#FFC53D"/>
<rect x="121.4" y="16" width="19.08" height="19.08" rx="2" fill="#73D13D"/>
<rect x="142.48" y="16" width="19.08" height="19.08" rx="2" fill="#73D13D"/>
<rect x="163.56" y="16" width="19.08" height="19.08" rx="2" fill="#73D13D"/>
<rect x="226.8" y="16" width="19.08" height="19.08" rx="2" fill="#73D13D"/>
<rect x="247.88" y="16" width="19.08" height="19.08" rx="2" fill="#73D13D"/>
<rect x="311.12" y="16" width="19.08" height="19.08" rx="2" fill="#73D13D"/>
<rect x="16" y="37.0801" width="19.08" height="19.08" rx="2" fill="#73D13D"/>
<rect x="37.08" y="37.0801" width="19.08" height="19.08" rx="2" fill="#73D13D"/>
<rect x="58.16" y="37.0801" width="19.08" height="19.08" rx="2" fill="#73D13D"/>
<rect x="79.24" y="37.0801" width="19.08" height="19.08" rx="2" fill="#73D13D"/>
<rect x="100.32" y="37.0801" width="19.08" height="19.08" rx="2" fill="#73D13D"/>
<rect x="121.4" y="37.0801" width="19.08" height="19.08" rx="2" fill="#FF4D4F"/>
<rect x="142.48" y="37.0801" width="19.08" height="19.08" rx="2" fill="#FFC53D"/>
<rect x="163.56" y="37.0801" width="19.08" height="19.08" rx="2" fill="#FFC53D"/>
<rect x="184.64" y="37.0801" width="19.08" height="19.08" rx="2" fill="#FFC53D"/>
<rect x="205.72" y="37.0801" width="19.08" height="19.08" rx="2" fill="#73D13D"/>
<rect x="226.8" y="37.0801" width="19.08" height="19.08" rx="2" fill="#73D13D"/>
<rect x="247.88" y="37.0801" width="19.08" height="19.08" rx="2" fill="#73D13D"/>
<rect x="268.96" y="37.0801" width="19.08" height="19.08" rx="2" fill="#73D13D"/>
<rect x="290.04" y="37.0801" width="19.08" height="19.08" rx="2" fill="#73D13D"/>
<rect x="37.08" y="58.1602" width="19.08" height="19.08" rx="2" fill="#FF4D4F"/>
<rect x="58.16" y="58.1602" width="19.08" height="19.08" rx="2" fill="#FFC53D"/>
<rect x="79.24" y="58.1602" width="19.08" height="19.08" rx="2" fill="#73D13D"/>
<rect x="100.32" y="58.1602" width="19.08" height="19.08" rx="2" fill="#73D13D"/>
<rect x="121.4" y="58.1602" width="19.08" height="19.08" rx="2" fill="#73D13D"/>
<rect x="142.48" y="58.1602" width="19.08" height="19.08" rx="2" fill="#73D13D"/>
<rect x="163.56" y="58.1602" width="19.08" height="19.08" rx="2" fill="#73D13D"/>
<rect x="184.64" y="58.1602" width="19.08" height="19.08" rx="2" fill="#73D13D"/>
<rect x="205.72" y="58.1602" width="19.08" height="19.08" rx="2" fill="#73D13D"/>
<rect x="226.8" y="58.1602" width="19.08" height="19.08" rx="2" fill="#73D13D"/>
<rect x="247.88" y="58.1602" width="19.08" height="19.08" rx="2" fill="#73D13D"/>
<rect x="268.96" y="58.1602" width="19.08" height="19.08" rx="2" fill="#FF4D4F"/>
<rect x="290.04" y="58.1602" width="19.08" height="19.08" rx="2" fill="#FFC53D"/>
<rect x="16" y="79.2402" width="19.08" height="19.08" rx="2" fill="#FFC53D"/>
<rect x="79.24" y="79.2402" width="19.08" height="19.08" rx="2" fill="#73D13D"/>
<rect x="100.32" y="79.2402" width="19.08" height="19.08" rx="2" fill="#FF4D4F"/>
<rect x="121.4" y="79.2402" width="19.08" height="19.08" rx="2" fill="#FFC53D"/>
<rect x="142.48" y="79.2402" width="19.08" height="19.08" rx="2" fill="#73D13D"/>
<rect x="163.56" y="79.2402" width="19.08" height="19.08" rx="2" fill="#73D13D"/>
<rect x="184.64" y="79.2402" width="19.08" height="19.08" rx="2" fill="#73D13D"/>
<rect x="205.72" y="79.2402" width="19.08" height="19.08" rx="2" fill="#F0F0F0"/>
<rect x="226.8" y="79.2402" width="19.08" height="19.08" rx="2" fill="#F0F0F0"/>
<rect x="247.88" y="79.2402" width="19.08" height="19.08" rx="2" fill="#F0F0F0"/>
<rect x="268.96" y="79.2402" width="19.08" height="19.08" rx="2" fill="#F0F0F0"/>
<rect x="79.24" y="100.32" width="19.08" height="19.08" rx="2" fill="#F0F0F0"/>
<rect x="100.32" y="100.32" width="19.08" height="19.08" rx="2" fill="#F0F0F0"/>
<rect x="121.4" y="100.32" width="19.08" height="19.08" rx="2" fill="#F0F0F0"/>
<rect x="142.48" y="100.32" width="19.08" height="19.08" rx="2" fill="#F0F0F0"/>
<rect x="163.56" y="100.32" width="19.08" height="19.08" rx="2" fill="#F0F0F0"/>
<rect x="184.64" y="100.32" width="19.08" height="19.08" rx="2" fill="#F0F0F0"/>
<rect x="205.72" y="100.32" width="19.08" height="19.08" rx="2" fill="#F0F0F0"/>
<rect x="226.8" y="100.32" width="19.08" height="19.08" rx="2" fill="#F0F0F0"/>
<rect x="247.88" y="100.32" width="19.08" height="19.08" rx="2" fill="#F0F0F0"/>
<rect x="311.12" y="100.32" width="19.08" height="19.08" rx="2" fill="#F0F0F0"/>
<rect x="121.4" y="121.4" width="19.08" height="19.08" rx="2" fill="#F0F0F0"/>
<rect x="184.64" y="121.4" width="19.08" height="19.08" rx="2" fill="#F0F0F0"/>
<rect x="205.72" y="121.4" width="19.08" height="19.08" rx="2" fill="#F0F0F0"/>
<rect x="226.8" y="121.4" width="19.08" height="19.08" rx="2" fill="#F0F0F0"/>
<rect x="268.96" y="121.4" width="19.08" height="19.08" rx="2" fill="#F0F0F0"/>
<g filter="url(#filter0_d_2034_5187)">
<path fill-rule="evenodd" clip-rule="evenodd" d="M168.081 88.8707L176.074 107.87C176.418 108.687 177.578 108.686 177.919 107.867L179.751 103.474L183.879 107.601C185.05 108.773 186.95 108.773 188.121 107.601C189.293 106.43 189.293 104.53 188.121 103.359L183.994 99.2313L188.387 97.399C189.206 97.0575 189.207 95.8983 188.39 95.5543L169.391 87.5611C168.565 87.2136 167.734 88.0446 168.081 88.8707Z" fill="#12131A"/>
</g>
<path fill-rule="evenodd" clip-rule="evenodd" d="M179.055 99.9488L185.293 106.187C185.683 106.578 186.317 106.578 186.707 106.187C187.098 105.797 187.098 105.163 186.707 104.773L180.469 98.5346L185.414 96.4721L170.876 90.3557L176.992 104.894L179.055 99.9488ZM188.387 97.399C189.206 97.0575 189.207 95.8983 188.39 95.5543L169.391 87.5611C168.565 87.2136 167.734 88.0446 168.081 88.8707L176.074 107.87C176.418 108.687 177.578 108.686 177.919 107.867L179.751 103.474L183.879 107.601C185.05 108.773 186.95 108.773 188.121 107.601C189.293 106.43 189.293 104.53 188.121 103.359L183.994 99.2313L188.387 97.399Z" fill="white"/>
<g filter="url(#filter1_dd_2034_5187)">
<rect x="48" y="40.48" width="249" height="34" rx="6" fill="#262626" shape-rendering="crispEdges"/>
<path d="M65.3068 52.2982V62.48H64.1136L58.5653 54.4857H58.4659V62.48H57.233V52.2982H58.4261L63.9943 60.3124H64.0938V52.2982H65.3068ZM70.9972 62.6391C70.3078 62.6391 69.7029 62.475 69.1825 62.1469C68.6655 61.8188 68.2611 61.3597 67.9695 60.7698C67.6811 60.1798 67.5369 59.4904 67.5369 58.7016C67.5369 57.9061 67.6811 57.2118 67.9695 56.6185C68.2611 56.0252 68.6655 55.5645 69.1825 55.2364C69.7029 54.9082 70.3078 54.7442 70.9972 54.7442C71.6865 54.7442 72.2898 54.9082 72.8068 55.2364C73.3272 55.5645 73.7315 56.0252 74.0199 56.6185C74.3115 57.2118 74.4574 57.9061 74.4574 58.7016C74.4574 59.4904 74.3115 60.1798 74.0199 60.7698C73.7315 61.3597 73.3272 61.8188 72.8068 62.1469C72.2898 62.475 71.6865 62.6391 70.9972 62.6391ZM70.9972 61.5851C71.5208 61.5851 71.9517 61.4509 72.2898 61.1824C72.6278 60.9139 72.8781 60.5609 73.0405 60.1234C73.2029 59.6859 73.2841 59.212 73.2841 58.7016C73.2841 58.1912 73.2029 57.7155 73.0405 57.2747C72.8781 56.8339 72.6278 56.4776 72.2898 56.2058C71.9517 55.9341 71.5208 55.7982 70.9972 55.7982C70.4735 55.7982 70.0426 55.9341 69.7045 56.2058C69.3665 56.4776 69.1162 56.8339 68.9538 57.2747C68.7914 57.7155 68.7102 58.1912 68.7102 58.7016C68.7102 59.212 68.7914 59.6859 68.9538 60.1234C69.1162 60.5609 69.3665 60.9139 69.7045 61.1824C70.0426 61.4509 70.4735 61.5851 70.9972 61.5851ZM80.905 62.48V52.2982H82.0783V56.0567H82.1777C82.2639 55.9241 82.3832 55.7551 82.5357 55.5496C82.6914 55.3408 82.9135 55.1552 83.2019 54.9928C83.4935 54.827 83.8879 54.7442 84.3851 54.7442C85.0281 54.7442 85.5949 54.9049 86.0854 55.2264C86.5759 55.5479 86.9587 56.0037 87.2338 56.5936C87.5089 57.1836 87.6465 57.8796 87.6465 58.6817C87.6465 59.4904 87.5089 60.1914 87.2338 60.7847C86.9587 61.3746 86.5776 61.832 86.0904 62.1568C85.6031 62.4783 85.0413 62.6391 84.405 62.6391C83.9145 62.6391 83.5217 62.5579 83.2267 62.3955C82.9317 62.2297 82.7047 62.0425 82.5456 61.8337C82.3865 61.6216 82.2639 61.4459 82.1777 61.3067H82.0385V62.48H80.905ZM82.0584 58.6618C82.0584 59.2385 82.1429 59.7473 82.3119 60.1881C82.481 60.6256 82.7279 60.9686 83.0527 61.2172C83.3775 61.4625 83.7753 61.5851 84.2459 61.5851C84.7364 61.5851 85.1458 61.4558 85.4739 61.1973C85.8053 60.9355 86.0539 60.5841 86.2196 60.1433C86.3887 59.6992 86.4732 59.2054 86.4732 58.6618C86.4732 58.1249 86.3903 57.641 86.2246 57.2101C86.0622 56.7759 85.8153 56.4329 85.4838 56.181C85.1557 55.9258 84.7431 55.7982 84.2459 55.7982C83.7686 55.7982 83.3676 55.9191 83.0428 56.1611C82.718 56.3997 82.4727 56.7345 82.307 57.1653C82.1413 57.5929 82.0584 58.0917 82.0584 58.6618ZM94.5337 59.3578V54.8436H95.707V62.48H94.5337V61.1874H94.4542C94.2752 61.5752 93.9968 61.9049 93.6189 62.1767C93.2411 62.4452 92.7638 62.5794 92.1871 62.5794C91.7098 62.5794 91.2856 62.475 90.9144 62.2662C90.5432 62.0541 90.2515 61.7359 90.0394 61.3117C89.8273 60.8841 89.7212 60.3455 89.7212 59.6959V54.8436H90.8945V59.6163C90.8945 60.1732 91.0503 60.6173 91.3618 60.9487C91.6767 61.2802 92.0777 61.4459 92.565 61.4459C92.8566 61.4459 93.1533 61.3713 93.4549 61.2222C93.7598 61.073 94.015 60.8443 94.2205 60.5361C94.4293 60.2278 94.5337 59.8351 94.5337 59.3578ZM101.218 65.5027C100.652 65.5027 100.164 65.4298 99.7567 65.284C99.349 65.1414 99.0093 64.9525 98.7375 64.7172C98.4691 64.4852 98.2553 64.2366 98.0962 63.9715L99.0309 63.3152C99.1369 63.4544 99.2712 63.6135 99.4336 63.7925C99.596 63.9748 99.818 64.1322 100.1 64.2648C100.385 64.4007 100.758 64.4686 101.218 64.4686C101.835 64.4686 102.344 64.3195 102.745 64.0212C103.146 63.7229 103.346 63.2555 103.346 62.6192V61.068H103.247C103.161 61.2073 103.038 61.3796 102.879 61.5851C102.723 61.7873 102.498 61.9679 102.203 62.127C101.911 62.2828 101.517 62.3607 101.019 62.3607C100.403 62.3607 99.8495 62.2148 99.359 61.9232C98.8718 61.6315 98.4856 61.2073 98.2006 60.6504C97.9189 60.0936 97.778 59.4175 97.778 58.622C97.778 57.8398 97.9156 57.1587 98.1907 56.5787C98.4658 55.9954 98.8486 55.5446 99.3391 55.2264C99.8296 54.9049 100.396 54.7442 101.039 54.7442C101.537 54.7442 101.931 54.827 102.223 54.9928C102.518 55.1552 102.743 55.3408 102.899 55.5496C103.058 55.7551 103.18 55.9241 103.267 56.0567H103.386V54.8436H104.519V62.6987C104.519 63.355 104.37 63.8886 104.072 64.2996C103.777 64.7139 103.379 65.0171 102.879 65.2094C102.382 65.4049 101.828 65.5027 101.218 65.5027ZM101.179 61.3067C101.649 61.3067 102.047 61.199 102.372 60.9835C102.697 60.7681 102.944 60.4582 103.113 60.0538C103.282 59.6495 103.366 59.1656 103.366 58.6021C103.366 58.052 103.283 57.5664 103.118 57.1455C102.952 56.7245 102.707 56.3948 102.382 56.1561C102.057 55.9175 101.656 55.7982 101.179 55.7982C100.681 55.7982 100.267 55.9241 99.9357 56.176C99.6076 56.4279 99.3606 56.766 99.1949 57.1902C99.0325 57.6145 98.9513 58.0851 98.9513 58.6021C98.9513 59.1324 99.0342 59.6014 99.1999 60.0091C99.3689 60.4135 99.6175 60.7316 99.9456 60.9636C100.277 61.1923 100.688 61.3067 101.179 61.3067ZM112.356 56.5538L111.302 56.8521C111.236 56.6765 111.138 56.5058 111.009 56.3401C110.883 56.171 110.711 56.0318 110.492 55.9225C110.273 55.8131 109.993 55.7584 109.652 55.7584C109.184 55.7584 108.795 55.8661 108.483 56.0815C108.175 56.2937 108.021 56.5638 108.021 56.8919C108.021 57.1836 108.127 57.4139 108.339 57.583C108.551 57.752 108.883 57.8929 109.334 58.0055L110.467 58.284C111.15 58.4497 111.659 58.7032 111.993 59.0446C112.328 59.3827 112.496 59.8185 112.496 60.3521C112.496 60.7896 112.37 61.1807 112.118 61.5254C111.869 61.8701 111.521 62.1419 111.074 62.3408C110.626 62.5396 110.106 62.6391 109.513 62.6391C108.734 62.6391 108.089 62.47 107.579 62.132C107.068 61.7939 106.745 61.3001 106.609 60.6504L107.723 60.372C107.829 60.783 108.029 61.0912 108.324 61.2967C108.623 61.5022 109.012 61.605 109.493 61.605C110.04 61.605 110.474 61.489 110.795 61.257C111.12 61.0216 111.282 60.7399 111.282 60.4118C111.282 60.1466 111.19 59.9246 111.004 59.7456C110.818 59.5633 110.533 59.4274 110.149 59.3379L108.876 59.0396C108.177 58.8739 107.663 58.6171 107.335 58.269C107.01 57.9177 106.848 57.4786 106.848 56.9516C106.848 56.5207 106.969 56.1395 107.211 55.8081C107.456 55.4767 107.789 55.2165 108.21 55.0276C108.634 54.8386 109.115 54.7442 109.652 54.7442C110.407 54.7442 111.001 54.9099 111.432 55.2413C111.866 55.5728 112.174 56.0103 112.356 56.5538ZM121.861 62.6391C121.172 62.6391 120.567 62.475 120.047 62.1469C119.53 61.8188 119.125 61.3597 118.834 60.7698C118.545 60.1798 118.401 59.4904 118.401 58.7016C118.401 57.9061 118.545 57.2118 118.834 56.6185C119.125 56.0252 119.53 55.5645 120.047 55.2364C120.567 54.9082 121.172 54.7442 121.861 54.7442C122.551 54.7442 123.154 54.9082 123.671 55.2364C124.191 55.5645 124.596 56.0252 124.884 56.6185C125.176 57.2118 125.322 57.9061 125.322 58.7016C125.322 59.4904 125.176 60.1798 124.884 60.7698C124.596 61.3597 124.191 61.8188 123.671 62.1469C123.154 62.475 122.551 62.6391 121.861 62.6391ZM121.861 61.5851C122.385 61.5851 122.816 61.4509 123.154 61.1824C123.492 60.9139 123.742 60.5609 123.905 60.1234C124.067 59.6859 124.148 59.212 124.148 58.7016C124.148 58.1912 124.067 57.7155 123.905 57.2747C123.742 56.8339 123.492 56.4776 123.154 56.2058C122.816 55.9341 122.385 55.7982 121.861 55.7982C121.338 55.7982 120.907 55.9341 120.569 56.2058C120.231 56.4776 119.981 56.8339 119.818 57.2747C119.656 57.7155 119.575 58.1912 119.575 58.7016C119.575 59.212 119.656 59.6859 119.818 60.1234C119.981 60.5609 120.231 60.9139 120.569 61.1824C120.907 61.4509 121.338 61.5851 121.861 61.5851ZM128.566 57.8862V62.48H127.393V54.8436H128.526V56.0368H128.626C128.805 55.649 129.076 55.3375 129.441 55.1021C129.806 54.8635 130.276 54.7442 130.853 54.7442C131.37 54.7442 131.822 54.8502 132.21 55.0624C132.598 55.2712 132.9 55.5894 133.115 56.0169C133.33 56.4412 133.438 56.9781 133.438 57.6277V62.48H132.265V57.7073C132.265 57.1073 132.109 56.64 131.798 56.3053C131.486 55.9672 131.058 55.7982 130.515 55.7982C130.14 55.7982 129.806 55.8794 129.511 56.0418C129.219 56.2042 128.989 56.4412 128.82 56.7527C128.651 57.0643 128.566 57.4421 128.566 57.8862ZM143.401 54.8436V55.8379H139.443V54.8436H143.401ZM140.597 53.0141H141.77V60.2925C141.77 60.6239 141.818 60.8725 141.914 61.0382C142.014 61.2006 142.14 61.31 142.292 61.3663C142.448 61.4194 142.612 61.4459 142.784 61.4459C142.913 61.4459 143.02 61.4393 143.102 61.426C143.185 61.4094 143.252 61.3962 143.301 61.3862L143.54 62.4402C143.46 62.47 143.349 62.4999 143.207 62.5297C143.064 62.5628 142.884 62.5794 142.665 62.5794C142.333 62.5794 142.009 62.5082 141.69 62.3656C141.376 62.2231 141.114 62.006 140.905 61.7144C140.699 61.4227 140.597 61.0548 140.597 60.6107V53.0141ZM146.783 57.8862V62.48H145.61V52.2982H146.783V56.0368H146.882C147.061 55.6424 147.33 55.3292 147.688 55.0972C148.049 54.8618 148.53 54.7442 149.13 54.7442C149.65 54.7442 150.106 54.8486 150.497 55.0574C150.888 55.2629 151.191 55.5794 151.407 56.007C151.625 56.4312 151.735 56.9715 151.735 57.6277V62.48H150.561V57.7073C150.561 57.1007 150.404 56.6317 150.089 56.3003C149.777 55.9655 149.345 55.7982 148.791 55.7982C148.407 55.7982 148.062 55.8794 147.757 56.0418C147.456 56.2042 147.217 56.4412 147.041 56.7527C146.869 57.0643 146.783 57.4421 146.783 57.8862ZM157.363 62.6391C156.627 62.6391 155.992 62.4767 155.459 62.1519C154.928 61.8237 154.519 61.3663 154.231 60.7797C153.946 60.1897 153.803 59.5037 153.803 58.7215C153.803 57.9393 153.946 57.2499 154.231 56.6533C154.519 56.0534 154.92 55.586 155.434 55.2513C155.951 54.9132 156.554 54.7442 157.244 54.7442C157.641 54.7442 158.034 54.8105 158.422 54.943C158.81 55.0756 159.163 55.2911 159.481 55.5894C159.799 55.8843 160.052 56.2754 160.241 56.7627C160.43 57.2499 160.525 57.8498 160.525 58.5624V59.0595H154.638V58.0453H159.332C159.332 57.6144 159.245 57.23 159.073 56.8919C158.904 56.5538 158.662 56.287 158.347 56.0915C158.036 55.8959 157.668 55.7982 157.244 55.7982C156.776 55.7982 156.372 55.9142 156.03 56.1462C155.692 56.3749 155.432 56.6732 155.25 57.0411C155.068 57.409 154.976 57.8034 154.976 58.2243V58.9004C154.976 59.4771 155.076 59.966 155.275 60.3671C155.477 60.7648 155.757 61.068 156.115 61.2769C156.473 61.4823 156.889 61.5851 157.363 61.5851C157.671 61.5851 157.949 61.542 158.198 61.4558C158.45 61.3663 158.667 61.2338 158.849 61.0581C159.032 60.8791 159.172 60.6571 159.272 60.3919L160.405 60.7101C160.286 61.0946 160.086 61.4326 159.804 61.7243C159.522 62.0127 159.174 62.238 158.76 62.4004C158.346 62.5595 157.88 62.6391 157.363 62.6391ZM166.787 62.48V61.5851L170.148 57.9061C170.542 57.4752 170.867 57.1007 171.122 56.7825C171.378 56.461 171.567 56.1594 171.689 55.8777C171.815 55.5927 171.878 55.2944 171.878 54.9828C171.878 54.6249 171.792 54.315 171.62 54.0531C171.451 53.7913 171.219 53.5891 170.924 53.4466C170.629 53.3041 170.297 53.2328 169.929 53.2328C169.538 53.2328 169.197 53.314 168.905 53.4764C168.617 53.6355 168.393 53.8592 168.234 54.1476C168.078 54.4359 168 54.774 168 55.1618H166.827C166.827 54.5652 166.964 54.0415 167.24 53.5908C167.515 53.14 167.889 52.7887 168.363 52.5368C168.84 52.2849 169.376 52.159 169.969 52.159C170.566 52.159 171.094 52.2849 171.555 52.5368C172.016 52.7887 172.377 53.1284 172.639 53.556C172.901 53.9835 173.031 54.4591 173.031 54.9828C173.031 55.3573 172.964 55.7236 172.828 56.0815C172.695 56.4362 172.463 56.8323 172.132 57.2698C171.804 57.7039 171.348 58.2342 170.764 58.8607L168.478 61.3067V61.3862H173.21V62.48H166.787ZM178.924 62.6192C178.507 62.6126 178.089 62.533 177.672 62.3805C177.254 62.2281 176.873 61.9712 176.528 61.61C176.183 61.2454 175.907 60.7532 175.698 60.1334C175.489 59.5103 175.385 58.7281 175.385 57.7868C175.385 56.8853 175.469 56.0865 175.638 55.3905C175.807 54.6912 176.053 54.1028 176.374 53.6256C176.695 53.145 177.083 52.7804 177.537 52.5318C177.995 52.2832 178.51 52.159 179.084 52.159C179.654 52.159 180.161 52.2733 180.605 52.502C181.052 52.7274 181.417 53.0422 181.699 53.4466C181.98 53.851 182.163 54.3166 182.245 54.8436H181.032C180.92 54.3862 180.701 54.0067 180.376 53.7051C180.051 53.4035 179.62 53.2527 179.084 53.2527C178.295 53.2527 177.673 53.5957 177.219 54.2818C176.768 54.9679 176.541 55.9307 176.538 57.1703H176.618C176.803 56.8886 177.024 56.6483 177.279 56.4494C177.537 56.2473 177.822 56.0915 178.134 55.9821C178.445 55.8727 178.775 55.818 179.123 55.818C179.707 55.818 180.24 55.9639 180.724 56.2555C181.208 56.5439 181.596 56.9433 181.887 57.4537C182.179 57.9608 182.325 58.5425 182.325 59.1987C182.325 59.8285 182.184 60.4052 181.902 60.9288C181.621 61.4492 181.225 61.8635 180.714 62.1717C180.207 62.4767 179.611 62.6258 178.924 62.6192ZM178.924 61.5254C179.342 61.5254 179.717 61.421 180.048 61.2122C180.383 61.0034 180.646 60.7234 180.838 60.372C181.034 60.0207 181.132 59.6296 181.132 59.1987C181.132 58.7778 181.037 58.395 180.848 58.0503C180.663 57.7023 180.406 57.4255 180.078 57.22C179.753 57.0145 179.382 56.9118 178.964 56.9118C178.649 56.9118 178.356 56.9748 178.084 57.1007C177.812 57.2234 177.574 57.3924 177.368 57.6078C177.166 57.8233 177.007 58.0702 176.891 58.3486C176.775 58.6237 176.717 58.9137 176.717 59.2186C176.717 59.623 176.812 60.0008 177 60.3521C177.193 60.7035 177.454 60.9868 177.786 61.2023C178.121 61.4177 178.5 61.5254 178.924 61.5254ZM187.901 54.8436V55.8379H183.944V54.8436H187.901ZM185.097 53.0141H186.27V60.2925C186.27 60.6239 186.318 60.8725 186.414 61.0382C186.514 61.2006 186.64 61.31 186.792 61.3663C186.948 61.4194 187.112 61.4459 187.285 61.4459C187.414 61.4459 187.52 61.4393 187.603 61.426C187.686 61.4094 187.752 61.3962 187.802 61.3862L188.04 62.4402C187.961 62.47 187.85 62.4999 187.707 62.5297C187.565 62.5628 187.384 62.5794 187.165 62.5794C186.834 62.5794 186.509 62.5082 186.191 62.3656C185.876 62.2231 185.614 62.006 185.405 61.7144C185.2 61.4227 185.097 61.0548 185.097 60.6107V53.0141ZM191.283 57.8862V62.48H190.11V52.2982H191.283V56.0368H191.383C191.562 55.6424 191.83 55.3292 192.188 55.0972C192.549 54.8618 193.03 54.7442 193.63 54.7442C194.15 54.7442 194.606 54.8486 194.997 55.0574C195.388 55.2629 195.691 55.5794 195.907 56.007C196.126 56.4312 196.235 56.9715 196.235 57.6277V62.48H195.062V57.7073C195.062 57.1007 194.904 56.6317 194.589 56.3003C194.278 55.9655 193.845 55.7982 193.292 55.7982C192.907 55.7982 192.563 55.8794 192.258 56.0418C191.956 56.2042 191.717 56.4412 191.542 56.7527C191.369 57.0643 191.283 57.4421 191.283 57.8862ZM205.981 62.6391C205.292 62.6391 204.687 62.475 204.167 62.1469C203.65 61.8188 203.245 61.3597 202.954 60.7698C202.665 60.1798 202.521 59.4904 202.521 58.7016C202.521 57.9061 202.665 57.2118 202.954 56.6185C203.245 56.0252 203.65 55.5645 204.167 55.2364C204.687 54.9082 205.292 54.7442 205.981 54.7442C206.671 54.7442 207.274 54.9082 207.791 55.2364C208.311 55.5645 208.716 56.0252 209.004 56.6185C209.296 57.2118 209.441 57.9061 209.441 58.7016C209.441 59.4904 209.296 60.1798 209.004 60.7698C208.716 61.3597 208.311 61.8188 207.791 62.1469C207.274 62.475 206.671 62.6391 205.981 62.6391ZM205.981 61.5851C206.505 61.5851 206.936 61.4509 207.274 61.1824C207.612 60.9139 207.862 60.5609 208.025 60.1234C208.187 59.6859 208.268 59.212 208.268 58.7016C208.268 58.1912 208.187 57.7155 208.025 57.2747C207.862 56.8339 207.612 56.4776 207.274 56.2058C206.936 55.9341 206.505 55.7982 205.981 55.7982C205.458 55.7982 205.027 55.9341 204.689 56.2058C204.351 56.4776 204.1 56.8339 203.938 57.2747C203.775 57.7155 203.694 58.1912 203.694 58.7016C203.694 59.212 203.775 59.6859 203.938 60.1234C204.1 60.5609 204.351 60.9139 204.689 61.1824C205.027 61.4509 205.458 61.5851 205.981 61.5851ZM214.913 54.8436V55.8379H210.797V54.8436H214.913ZM212.03 62.48V53.7896C212.03 53.3521 212.132 52.9876 212.338 52.6959C212.543 52.4042 212.81 52.1855 213.138 52.0396C213.466 51.8938 213.813 51.8209 214.177 51.8209C214.466 51.8209 214.701 51.8441 214.883 51.8905C215.065 51.9369 215.201 51.98 215.291 52.0198L214.953 53.034C214.893 53.0141 214.81 52.9892 214.704 52.9594C214.601 52.9296 214.466 52.9146 214.297 52.9146C213.909 52.9146 213.629 53.0124 213.456 53.208C213.287 53.4035 213.203 53.6902 213.203 54.068V62.48H212.03ZM221.214 52.2982H222.686L226.146 60.7499H226.265L229.725 52.2982H231.197V62.48H230.044V54.7442H229.944L226.762 62.48H225.649L222.467 54.7442H222.367V62.48H221.214V52.2982ZM236.037 62.659C235.553 62.659 235.114 62.5678 234.72 62.3855C234.325 62.1999 234.012 61.9331 233.78 61.5851C233.548 61.2338 233.432 60.8095 233.432 60.3124C233.432 59.8749 233.518 59.5202 233.691 59.2484C233.863 58.9734 234.093 58.7579 234.382 58.6021C234.67 58.4464 234.988 58.3304 235.336 58.2541C235.687 58.1746 236.04 58.1116 236.395 58.0652C236.859 58.0055 237.235 57.9608 237.524 57.931C237.815 57.8978 238.027 57.8431 238.16 57.7669C238.296 57.6907 238.364 57.5581 238.364 57.3692V57.3294C238.364 56.8389 238.23 56.4577 237.961 56.1859C237.696 55.9142 237.293 55.7783 236.753 55.7783C236.193 55.7783 235.754 55.9009 235.436 56.1462C235.117 56.3914 234.894 56.6533 234.764 56.9317L233.651 56.534C233.85 56.0699 234.115 55.7087 234.446 55.4502C234.781 55.1883 235.146 55.006 235.54 54.9033C235.938 54.7972 236.329 54.7442 236.713 54.7442C236.959 54.7442 237.24 54.774 237.558 54.8337C237.88 54.89 238.19 55.0077 238.488 55.1867C238.79 55.3656 239.04 55.6358 239.239 55.997C239.438 56.3583 239.537 56.8422 239.537 57.4487V62.48H238.364V61.4459H238.304C238.225 61.6116 238.092 61.7889 237.906 61.9778C237.721 62.1668 237.474 62.3275 237.166 62.4601C236.857 62.5927 236.481 62.659 236.037 62.659ZM236.216 61.605C236.68 61.605 237.071 61.5138 237.389 61.3315C237.711 61.1493 237.953 60.9139 238.115 60.6256C238.281 60.3372 238.364 60.034 238.364 59.7158V58.6419C238.314 58.7016 238.205 58.7563 238.036 58.806C237.87 58.8524 237.678 58.8938 237.459 58.9303C237.244 58.9634 237.033 58.9932 236.828 59.0198C236.625 59.043 236.461 59.0628 236.335 59.0794C236.03 59.1192 235.745 59.1838 235.48 59.2733C235.218 59.3595 235.006 59.4904 234.844 59.6661C234.685 59.8384 234.605 60.0737 234.605 60.372C234.605 60.7797 234.756 61.0879 235.058 61.2967C235.363 61.5022 235.749 61.605 236.216 61.605ZM242.441 65.3436C242.242 65.3436 242.065 65.327 241.909 65.2939C241.753 65.2641 241.645 65.2342 241.586 65.2044L241.884 64.1703C242.169 64.2432 242.421 64.2698 242.64 64.2499C242.858 64.23 243.052 64.1322 243.221 63.9565C243.394 63.7842 243.551 63.5041 243.694 63.1163L243.912 62.5198L241.089 54.8436H242.361L244.469 60.9288H244.549L246.657 54.8436H247.93L244.688 63.5936C244.542 63.988 244.362 64.3145 244.146 64.573C243.931 64.8349 243.68 65.0287 243.395 65.1547C243.114 65.2806 242.796 65.3436 242.441 65.3436ZM253.956 62.48V61.5851L257.317 57.9061C257.711 57.4752 258.036 57.1007 258.291 56.7825C258.546 56.461 258.735 56.1594 258.858 55.8777C258.984 55.5927 259.047 55.2944 259.047 54.9828C259.047 54.6249 258.961 54.315 258.788 54.0531C258.619 53.7913 258.387 53.5891 258.092 53.4466C257.797 53.3041 257.466 53.2328 257.098 53.2328C256.707 53.2328 256.365 53.314 256.074 53.4764C255.785 53.6355 255.562 53.8592 255.403 54.1476C255.247 54.4359 255.169 54.774 255.169 55.1618H253.996C253.996 54.5652 254.133 54.0415 254.408 53.5908C254.683 53.14 255.058 52.7887 255.532 52.5368C256.009 52.2849 256.544 52.159 257.138 52.159C257.734 52.159 258.263 52.2849 258.724 52.5368C259.184 52.7887 259.545 53.1284 259.807 53.556C260.069 53.9835 260.2 54.4591 260.2 54.9828C260.2 55.3573 260.132 55.7236 259.996 56.0815C259.864 56.4362 259.632 56.8323 259.3 57.2698C258.972 57.7039 258.516 58.2342 257.933 58.8607L255.646 61.3067V61.3862H260.379V62.48H253.956ZM266.033 62.6192C265.284 62.6192 264.646 62.4153 264.119 62.0077C263.592 61.5967 263.19 61.0018 262.911 60.2229C262.633 59.4407 262.494 58.4961 262.494 57.3891C262.494 56.2887 262.633 55.3491 262.911 54.5702C263.193 53.788 263.597 53.1914 264.124 52.7804C264.655 52.3661 265.291 52.159 266.033 52.159C266.776 52.159 267.41 52.3661 267.937 52.7804C268.468 53.1914 268.872 53.788 269.151 54.5702C269.432 55.3491 269.573 56.2887 269.573 57.3891C269.573 58.4961 269.434 59.4407 269.156 60.2229C268.877 61.0018 268.474 61.5967 267.947 62.0077C267.42 62.4153 266.782 62.6192 266.033 62.6192ZM266.033 61.5254C266.776 61.5254 267.352 61.1675 267.763 60.4516C268.174 59.7357 268.38 58.7148 268.38 57.3891C268.38 56.5074 268.285 55.7567 268.097 55.1369C267.911 54.5171 267.642 54.0448 267.291 53.72C266.943 53.3952 266.524 53.2328 266.033 53.2328C265.298 53.2328 264.723 53.5957 264.308 54.3216C263.894 55.0441 263.687 56.0666 263.687 57.3891C263.687 58.2707 263.78 59.0198 263.965 59.6362C264.151 60.2527 264.418 60.7217 264.766 61.0432C265.117 61.3647 265.54 61.5254 266.033 61.5254ZM271.742 62.48V61.5851L275.103 57.9061C275.498 57.4752 275.822 57.1007 276.078 56.7825C276.333 56.461 276.522 56.1594 276.644 55.8777C276.77 55.5927 276.833 55.2944 276.833 54.9828C276.833 54.6249 276.747 54.315 276.575 54.0531C276.406 53.7913 276.174 53.5891 275.879 53.4466C275.584 53.3041 275.252 53.2328 274.884 53.2328C274.493 53.2328 274.152 53.314 273.86 53.4764C273.572 53.6355 273.348 53.8592 273.189 54.1476C273.033 54.4359 272.955 54.774 272.955 55.1618H271.782C271.782 54.5652 271.92 54.0415 272.195 53.5908C272.47 53.14 272.844 52.7887 273.318 52.5368C273.796 52.2849 274.331 52.159 274.924 52.159C275.521 52.159 276.049 52.2849 276.51 52.5368C276.971 52.7887 277.332 53.1284 277.594 53.556C277.856 53.9835 277.987 54.4591 277.987 54.9828C277.987 55.3573 277.919 55.7236 277.783 56.0815C277.65 56.4362 277.418 56.8323 277.087 57.2698C276.759 57.7039 276.303 58.2342 275.72 58.8607L273.433 61.3067V61.3862H278.166V62.48H271.742ZM280.042 60.3919V59.3777L284.516 52.2982H285.252V53.8692H284.755L281.374 59.2186V59.2982H287.399V60.3919H280.042ZM284.834 62.48V60.0837V59.6114V52.2982H286.007V62.48H284.834Z" fill="white"/>
<path d="M165 74.48H181C181 74.48 175 80.48 173 80.48C171 80.48 165 74.48 165 74.48Z" fill="#262626"/>
</g>
<defs>
<filter id="filter0_d_2034_5187" x="165" y="85.98" width="27.0018" height="27.002" filterUnits="userSpaceOnUse" color-interpolation-filters="sRGB">
<feFlood flood-opacity="0" result="BackgroundImageFix"/>
<feColorMatrix in="SourceAlpha" type="matrix" values="0 0 0 0 0 0 0 0 0 0 0 0 0 0 0 0 0 0 127 0" result="hardAlpha"/>
<feOffset dy="1.5"/>
<feGaussianBlur stdDeviation="1.5"/>
<feComposite in2="hardAlpha" operator="out"/>
<feColorMatrix type="matrix" values="0 0 0 0 0.0705882 0 0 0 0 0.0745098 0 0 0 0 0.101961 0 0 0 0.25 0"/>
<feBlend mode="normal" in2="BackgroundImageFix" result="effect1_dropShadow_2034_5187"/>
<feBlend mode="normal" in="SourceGraphic" in2="effect1_dropShadow_2034_5187" result="shape"/>
</filter>
<filter id="filter1_dd_2034_5187" x="28" y="40.48" width="289" height="80" filterUnits="userSpaceOnUse" color-interpolation-filters="sRGB">
<feFlood flood-opacity="0" result="BackgroundImageFix"/>
<feColorMatrix in="SourceAlpha" type="matrix" values="0 0 0 0 0 0 0 0 0 0 0 0 0 0 0 0 0 0 127 0" result="hardAlpha"/>
<feMorphology radius="5" operator="erode" in="SourceAlpha" result="effect1_dropShadow_2034_5187"/>
<feOffset dy="20"/>
<feGaussianBlur stdDeviation="12.5"/>
<feComposite in2="hardAlpha" operator="out"/>
<feColorMatrix type="matrix" values="0 0 0 0 0 0 0 0 0 0 0 0 0 0 0 0 0 0 0.1 0"/>
<feBlend mode="normal" in2="BackgroundImageFix" result="effect1_dropShadow_2034_5187"/>
<feColorMatrix in="SourceAlpha" type="matrix" values="0 0 0 0 0 0 0 0 0 0 0 0 0 0 0 0 0 0 127 0" result="hardAlpha"/>
<feMorphology radius="6" operator="erode" in="SourceAlpha" result="effect2_dropShadow_2034_5187"/>
<feOffset dy="8"/>
<feGaussianBlur stdDeviation="5"/>
<feComposite in2="hardAlpha" operator="out"/>
<feColorMatrix type="matrix" values="0 0 0 0 0 0 0 0 0 0 0 0 0 0 0 0 0 0 0.1 0"/>
<feBlend mode="normal" in2="effect1_dropShadow_2034_5187" result="effect2_dropShadow_2034_5187"/>
<feBlend mode="normal" in="SourceGraphic" in2="effect2_dropShadow_2034_5187" result="shape"/>
</filter>
</defs>
</svg>
