<svg width="165" height="38" viewBox="0 0 165 38" fill="none" xmlns="http://www.w3.org/2000/svg">
<path d="M0 8C0 3.58172 3.58172 0 8 0H157C161.418 0 165 3.58172 165 8V30C165 34.4183 161.418 38 157 38H8C3.58172 38 0 34.4183 0 30V8Z" fill="white"/>
<path d="M19.8977 24.1392C19.2348 24.1392 18.6598 24.0282 18.1726 23.8061C17.6887 23.5807 17.3274 23.2675 17.0888 22.8665C16.8501 22.4621 16.7656 21.9915 16.8352 21.4545H18.0682C18.0384 21.7794 18.0947 22.0611 18.2372 22.2997C18.383 22.5384 18.5985 22.7223 18.8835 22.8516C19.1719 22.9808 19.5166 23.0455 19.9176 23.0455C20.3452 23.0455 20.7462 22.9709 21.1207 22.8217C21.4986 22.6726 21.8151 22.4571 22.0703 22.1754C22.3255 21.8904 22.483 21.5507 22.5426 21.1562C22.5956 20.8016 22.5559 20.4867 22.4233 20.2116C22.2907 19.9366 22.062 19.7211 21.7372 19.5653C21.4157 19.4062 20.9948 19.3267 20.4744 19.3267H19.6392L19.8182 18.233H20.5938C20.9981 18.233 21.3693 18.1567 21.7074 18.0043C22.0455 17.8518 22.3272 17.638 22.5526 17.3629C22.7779 17.0845 22.9205 16.758 22.9801 16.3835C23.0365 16.0554 23.0133 15.7704 22.9105 15.5284C22.8111 15.2831 22.6387 15.0926 22.3935 14.9567C22.1515 14.8208 21.8433 14.7528 21.4688 14.7528C21.1108 14.7528 20.7595 14.8175 20.4148 14.9467C20.0734 15.0727 19.7817 15.2566 19.5398 15.4986C19.2978 15.7372 19.1454 16.0256 19.0824 16.3636H17.8892C17.992 15.8333 18.2223 15.3677 18.5803 14.9666C18.9382 14.5623 19.3741 14.2474 19.8878 14.022C20.4048 13.7933 20.9517 13.679 21.5284 13.679C22.1681 13.679 22.6951 13.8116 23.1094 14.0767C23.527 14.3385 23.8253 14.6832 24.0043 15.1108C24.1832 15.535 24.233 15.9924 24.1534 16.483C24.0639 17.0431 23.8336 17.517 23.4624 17.9048C23.0911 18.2926 22.6387 18.5677 22.1051 18.7301V18.7898C22.7315 18.8991 23.1856 19.1875 23.4673 19.6548C23.7524 20.1188 23.8419 20.6723 23.7358 21.3153C23.643 21.892 23.4193 22.3925 23.0646 22.8168C22.71 23.2377 22.2609 23.5642 21.7173 23.7962C21.1738 24.0249 20.5672 24.1392 19.8977 24.1392ZM32.7226 24.1591C32.083 24.1591 31.546 23.9983 31.1118 23.6768C30.6777 23.352 30.3711 22.8946 30.1921 22.3047C30.0164 21.7114 29.9949 21.0104 30.1275 20.2017C30.2634 19.3996 30.5169 18.7036 30.8881 18.1136C31.2627 17.5237 31.7217 17.0679 32.2653 16.7464C32.8088 16.425 33.4021 16.2642 34.0451 16.2642C34.5422 16.2642 34.9217 16.3471 35.1836 16.5128C35.4487 16.6752 35.641 16.8608 35.7603 17.0696C35.8796 17.2751 35.9707 17.4441 36.0337 17.5767H36.1332L36.7596 13.8182H37.9329L36.2425 24H35.109L35.3079 22.8267H35.1687C35.0593 22.9659 34.9068 23.1416 34.7113 23.3537C34.5157 23.5625 34.2572 23.7498 33.9357 23.9155C33.6175 24.0779 33.2132 24.1591 32.7226 24.1591ZM33.011 23.1051C33.4816 23.1051 33.9026 22.9825 34.2738 22.7372C34.6483 22.4886 34.9599 22.1456 35.2084 21.7081C35.457 21.2673 35.6294 20.7585 35.7255 20.1818C35.8216 19.6117 35.8183 19.1129 35.7155 18.6854C35.6128 18.2545 35.4156 17.9197 35.1239 17.6811C34.8323 17.4392 34.4461 17.3182 33.9655 17.3182C33.4717 17.3182 33.0425 17.4458 32.6779 17.701C32.3133 17.9529 32.0167 18.2959 31.788 18.7301C31.5593 19.161 31.4002 19.6449 31.3107 20.1818C31.2212 20.7254 31.2196 21.2192 31.3057 21.6634C31.3919 22.1042 31.5742 22.4555 31.8526 22.7173C32.1343 22.9759 32.5205 23.1051 33.011 23.1051ZM41.0516 24.179C40.5677 24.179 40.1435 24.0878 39.7789 23.9055C39.4143 23.7199 39.1442 23.4531 38.9686 23.1051C38.7929 22.7538 38.7448 22.3295 38.8244 21.8324C38.9006 21.3949 39.0481 21.0402 39.2668 20.7685C39.4856 20.4934 39.7507 20.2779 40.0623 20.1222C40.3772 19.9631 40.7152 19.8454 41.0765 19.7692C41.4411 19.6896 41.804 19.6283 42.1653 19.5852C42.6359 19.5256 43.0187 19.4792 43.3137 19.446C43.6087 19.4129 43.8308 19.3582 43.9799 19.282C44.1291 19.2057 44.2202 19.0748 44.2534 18.8892V18.8494C44.3329 18.3622 44.2683 17.9827 44.0595 17.7109C43.8507 17.4358 43.4778 17.2983 42.9409 17.2983C42.384 17.2983 41.9184 17.4209 41.5438 17.6662C41.1693 17.9115 40.8926 18.1733 40.7136 18.4517L39.6795 18.054C39.9513 17.59 40.2761 17.2287 40.6539 16.9702C41.0318 16.7083 41.4278 16.526 41.8421 16.4233C42.2564 16.3172 42.6558 16.2642 43.0403 16.2642C43.2855 16.2642 43.5623 16.294 43.8705 16.3537C44.1788 16.41 44.4671 16.5277 44.7356 16.7067C45.0074 16.8857 45.2112 17.1558 45.3471 17.517C45.4863 17.8783 45.5062 18.3622 45.4068 18.9688L44.5715 24H43.3982L43.5772 22.9659H43.5176C43.4115 23.1316 43.2491 23.3089 43.0303 23.4979C42.8149 23.6868 42.5415 23.8475 42.21 23.9801C41.8819 24.1127 41.4958 24.179 41.0516 24.179ZM41.3897 23.125C41.8537 23.125 42.2597 23.0339 42.6078 22.8516C42.9591 22.6693 43.2408 22.4339 43.4529 22.1456C43.6684 21.8572 43.8026 21.554 43.8556 21.2358L44.0346 20.1619C43.9749 20.2216 43.8573 20.2763 43.6816 20.326C43.506 20.3724 43.3071 20.4138 43.085 20.4503C42.8663 20.4834 42.6525 20.5133 42.4437 20.5398C42.2382 20.563 42.0725 20.5829 41.9465 20.5994C41.635 20.6392 41.3383 20.7038 41.0566 20.7933C40.7782 20.8795 40.5429 21.0104 40.3507 21.1861C40.1617 21.3584 40.0441 21.5937 39.9977 21.892C39.9281 22.2997 40.0258 22.608 40.291 22.8168C40.5561 23.0223 40.9224 23.125 41.3897 23.125ZM47.008 26.8636C46.8091 26.8636 46.6334 26.8471 46.481 26.8139C46.3318 26.7841 46.2291 26.7543 46.1727 26.7244L46.65 25.6903C46.9218 25.7633 47.1637 25.7848 47.3759 25.755C47.5913 25.7285 47.7951 25.6241 47.9874 25.4418C48.1829 25.2628 48.3868 24.9811 48.5989 24.5966L48.927 24L47.3957 16.3636H48.6188L49.7125 22.4688H49.7921L52.9142 16.3636H54.2367L49.5534 25.1037C49.3347 25.5114 49.0944 25.8445 48.8325 26.103C48.5707 26.3615 48.2873 26.5521 47.9824 26.6747C47.6775 26.8007 47.3527 26.8636 47.008 26.8636ZM61.196 18.0739L60.0824 18.3722C60.0426 18.1932 59.973 18.0208 59.8735 17.8551C59.7774 17.6861 59.6283 17.5485 59.4261 17.4425C59.2272 17.3331 58.9555 17.2784 58.6108 17.2784C58.1434 17.2784 57.7374 17.3861 57.3927 17.6016C57.048 17.8137 56.8508 18.0838 56.8011 18.4119C56.7514 18.7003 56.8177 18.9306 57 19.103C57.1823 19.2753 57.4872 19.4162 57.9147 19.5256L59.0085 19.804C59.6647 19.973 60.1321 20.2266 60.4105 20.5646C60.6922 20.8994 60.7883 21.3352 60.6988 21.8722C60.6259 22.3097 60.4353 22.7008 60.1271 23.0455C59.8189 23.3902 59.4244 23.6619 58.9439 23.8608C58.4633 24.0597 57.928 24.1591 57.338 24.1591C56.5525 24.1591 55.9327 23.9901 55.4787 23.652C55.0246 23.3106 54.7826 22.8168 54.7528 22.1705L55.9261 21.892C55.9559 22.2997 56.1018 22.608 56.3636 22.8168C56.6288 23.0223 57 23.125 57.4772 23.125C58.0241 23.125 58.4798 23.009 58.8444 22.777C59.209 22.5417 59.4162 22.2599 59.4659 21.9318C59.5156 21.6634 59.4626 21.4396 59.3068 21.2607C59.1543 21.0817 58.8892 20.9474 58.5113 20.858L57.2983 20.5597C56.6221 20.3906 56.1482 20.1321 55.8764 19.7841C55.6079 19.4361 55.5184 18.9986 55.6079 18.4716C55.6808 18.0407 55.8664 17.6596 56.1647 17.3281C56.4663 16.9967 56.8442 16.7365 57.2983 16.5476C57.7556 16.3587 58.2528 16.2642 58.7897 16.2642C59.5454 16.2642 60.1105 16.4299 60.4851 16.7614C60.8596 17.0895 61.0966 17.527 61.196 18.0739ZM66.7636 24L68.454 13.8182H69.6273L69.0108 17.5767H69.1102C69.2163 17.4441 69.3638 17.2751 69.5527 17.0696C69.7416 16.8608 69.9952 16.6752 70.3133 16.5128C70.6315 16.3471 71.0392 16.2642 71.5363 16.2642C72.1793 16.2642 72.7179 16.425 73.1521 16.7464C73.5896 17.0679 73.8962 17.5237 74.0719 18.1136C74.2508 18.7036 74.274 19.3996 74.1415 20.2017C74.0089 21.0104 73.7553 21.7114 73.3808 22.3047C73.0096 22.8946 72.5522 23.352 72.0086 23.6768C71.4684 23.9983 70.8801 24.1591 70.2437 24.1591C69.7532 24.1591 69.3737 24.0779 69.1052 23.9155C68.8401 23.7498 68.6445 23.5625 68.5186 23.3537C68.396 23.1416 68.3015 22.9659 68.2352 22.8267H68.096L67.8971 24H66.7636ZM68.5534 20.1818C68.4606 20.7585 68.4622 21.2673 68.5584 21.7081C68.6545 22.1456 68.8451 22.4886 69.1301 22.7372C69.4151 22.9825 69.793 23.1051 70.2636 23.1051C70.7542 23.1051 71.185 22.9759 71.5562 22.7173C71.9274 22.4555 72.2324 22.1042 72.471 21.6634C72.7096 21.2192 72.8754 20.7254 72.9682 20.1818C73.0543 19.6449 73.051 19.161 72.9582 18.7301C72.8687 18.2959 72.6798 17.9529 72.3915 17.701C72.1064 17.4458 71.7153 17.3182 71.2182 17.3182C70.7409 17.3182 70.3183 17.4392 69.9504 17.6811C69.5858 17.9197 69.2842 18.2545 69.0456 18.6854C68.8103 19.1129 68.6462 19.6117 68.5534 20.1818ZM80.9094 20.8778L81.6651 16.3636H82.8384L81.5656 24H80.3923L80.6111 22.7074H80.5316C80.2929 23.0952 79.9598 23.425 79.5323 23.6967C79.1047 23.9652 78.6026 24.0994 78.0259 24.0994C77.5486 24.0994 77.1409 23.995 76.8029 23.7862C76.4681 23.5741 76.2295 23.2559 76.0869 22.8317C75.9477 22.4041 75.9312 21.8655 76.0372 21.2159L76.8526 16.3636H78.0259L77.2304 21.1364C77.1409 21.6932 77.2254 22.1373 77.484 22.4688C77.7425 22.8002 78.1154 22.9659 78.6026 22.9659C78.8942 22.9659 79.2025 22.8913 79.5273 22.7422C79.8554 22.593 80.1471 22.3643 80.4023 22.0561C80.6608 21.7479 80.8298 21.3551 80.9094 20.8778ZM86.5997 27.0227C86.0296 27.0227 85.5524 26.9498 85.1679 26.804C84.7834 26.6615 84.4752 26.4725 84.2432 26.2372C84.0112 26.0052 83.8355 25.7566 83.7162 25.4915L84.7702 24.8352C84.8497 24.9744 84.9525 25.1335 85.0784 25.3125C85.2044 25.4948 85.3949 25.6522 85.6501 25.7848C85.9087 25.9207 86.2716 25.9886 86.7389 25.9886C87.3521 25.9886 87.889 25.8395 88.3497 25.5412C88.8104 25.2429 89.0955 24.7756 89.2048 24.1392L89.4435 22.5881H89.344C89.238 22.7273 89.0905 22.8996 88.9016 23.1051C88.7126 23.3073 88.4591 23.4879 88.1409 23.647C87.8227 23.8028 87.4151 23.8807 86.9179 23.8807C86.2981 23.8807 85.7678 23.7348 85.327 23.4432C84.8862 23.1515 84.5697 22.7273 84.3774 22.1705C84.1885 21.6136 84.1603 20.9375 84.2929 20.142C84.4222 19.3598 84.6707 18.6787 85.0386 18.0987C85.4099 17.5154 85.8672 17.0646 86.4108 16.7464C86.9544 16.425 87.5476 16.2642 88.1906 16.2642C88.6878 16.2642 89.0689 16.3471 89.3341 16.5128C89.6026 16.6752 89.7981 16.8608 89.9207 17.0696C90.0434 17.2751 90.1362 17.4441 90.1992 17.5767H90.3185L90.5173 16.3636H91.6509L90.3582 24.2188C90.2489 24.875 90.0119 25.4086 89.6473 25.8196C89.2827 26.2339 88.8353 26.5372 88.305 26.7294C87.7747 26.925 87.2063 27.0227 86.5997 27.0227ZM87.2162 22.8267C87.6835 22.8267 88.0995 22.719 88.4641 22.5036C88.832 22.2881 89.1369 21.9782 89.3788 21.5739C89.6208 21.1695 89.7882 20.6856 89.881 20.1222C89.9738 19.572 89.9671 19.0864 89.8611 18.6655C89.755 18.2446 89.5545 17.9148 89.2595 17.6761C88.9679 17.4375 88.585 17.3182 88.1111 17.3182C87.6106 17.3182 87.1781 17.4441 86.8135 17.696C86.4522 17.9479 86.1589 18.286 85.9335 18.7102C85.7081 19.1345 85.5524 19.6051 85.4662 20.1222C85.38 20.6525 85.3833 21.1214 85.4761 21.5291C85.5689 21.9335 85.7579 22.2517 86.0429 22.4837C86.3313 22.7124 86.7224 22.8267 87.2162 22.8267ZM101.697 16.3636L101.538 17.358H97.4211L97.5802 16.3636H101.697ZM97.5404 24L98.9921 15.3097C99.0584 14.8722 99.2175 14.5076 99.4694 14.2159C99.7246 13.9242 100.028 13.7055 100.379 13.5597C100.734 13.4138 101.093 13.3409 101.458 13.3409C101.746 13.3409 101.977 13.3641 102.149 13.4105C102.325 13.4569 102.452 13.5 102.532 13.5398L102.035 14.554C101.975 14.5341 101.896 14.5092 101.796 14.4794C101.7 14.4496 101.567 14.4347 101.398 14.4347C101.011 14.4347 100.716 14.5324 100.513 14.728C100.311 14.9235 100.175 15.2102 100.106 15.5881L98.7137 24H97.5404ZM102.348 24L103.621 16.3636H104.755L104.556 17.517H104.635C104.834 17.1392 105.137 16.8326 105.545 16.5973C105.953 16.362 106.385 16.2443 106.843 16.2443C106.932 16.2443 107.04 16.246 107.166 16.2493C107.292 16.2493 107.389 16.2543 107.459 16.2642L107.26 17.4574C107.22 17.4474 107.131 17.4325 106.992 17.4126C106.853 17.3894 106.703 17.3778 106.544 17.3778C106.173 17.3778 105.83 17.4557 105.515 17.6115C105.2 17.764 104.937 17.9761 104.725 18.2479C104.513 18.5163 104.377 18.8229 104.317 19.1676L103.522 24H102.348ZM110.814 24.1591C110.082 24.1591 109.477 23.9967 108.999 23.6719C108.522 23.3438 108.189 22.8864 108 22.2997C107.811 21.7098 107.781 21.0237 107.911 20.2415C108.04 19.4593 108.297 18.7699 108.681 18.1733C109.066 17.5734 109.545 17.1061 110.118 16.7713C110.691 16.4332 111.321 16.2642 112.007 16.2642C112.405 16.2642 112.788 16.3305 113.156 16.4631C113.524 16.5956 113.842 16.8111 114.11 17.1094C114.379 17.4044 114.566 17.7955 114.672 18.2827C114.778 18.7699 114.771 19.3698 114.652 20.0824L114.573 20.5795H108.686L108.845 19.5653H113.538C113.615 19.1345 113.595 18.75 113.479 18.4119C113.366 18.0739 113.169 17.8071 112.887 17.6115C112.609 17.416 112.256 17.3182 111.828 17.3182C111.387 17.3182 110.976 17.4375 110.595 17.6761C110.214 17.9115 109.896 18.2098 109.641 18.571C109.386 18.929 109.226 19.2936 109.163 19.6648L109.024 20.5398C108.925 21.1728 108.94 21.6766 109.069 22.0511C109.202 22.4257 109.432 22.6958 109.76 22.8615C110.088 23.0239 110.499 23.1051 110.993 23.1051C111.308 23.1051 111.598 23.062 111.863 22.9759C112.128 22.8864 112.365 22.7538 112.574 22.5781C112.783 22.3991 112.958 22.1771 113.101 21.9119L114.175 22.2301C113.993 22.6146 113.736 22.9527 113.404 23.2443C113.076 23.5327 112.692 23.758 112.251 23.9205C111.813 24.0795 111.334 24.1591 110.814 24.1591ZM119.27 24.1591C118.537 24.1591 117.932 23.9967 117.455 23.6719C116.978 23.3438 116.645 22.8864 116.456 22.2997C116.267 21.7098 116.237 21.0237 116.366 20.2415C116.496 19.4593 116.753 18.7699 117.137 18.1733C117.521 17.5734 118 17.1061 118.574 16.7713C119.147 16.4332 119.777 16.2642 120.463 16.2642C120.861 16.2642 121.244 16.3305 121.611 16.4631C121.979 16.5956 122.297 16.8111 122.566 17.1094C122.834 17.4044 123.022 17.7955 123.128 18.2827C123.234 18.7699 123.227 19.3698 123.108 20.0824L123.028 20.5795H117.142L117.301 19.5653H121.994C122.07 19.1345 122.051 18.75 121.935 18.4119C121.822 18.0739 121.625 17.8071 121.343 17.6115C121.065 17.416 120.712 17.3182 120.284 17.3182C119.843 17.3182 119.432 17.4375 119.051 17.6761C118.67 17.9115 118.352 18.2098 118.096 18.571C117.841 18.929 117.682 19.2936 117.619 19.6648L117.48 20.5398C117.381 21.1728 117.395 21.6766 117.525 22.0511C117.657 22.4257 117.888 22.6958 118.216 22.8615C118.544 23.0239 118.955 23.1051 119.449 23.1051C119.764 23.1051 120.054 23.062 120.319 22.9759C120.584 22.8864 120.821 22.7538 121.03 22.5781C121.239 22.3991 121.414 22.1771 121.557 21.9119L122.631 22.2301C122.448 22.6146 122.191 22.9527 121.86 23.2443C121.532 23.5327 121.147 23.758 120.707 23.9205C120.269 24.0795 119.79 24.1591 119.27 24.1591ZM127.785 13.8182L126.473 21.1364H125.319L126.433 13.8182H127.785ZM125.558 24.0795C125.306 24.0795 125.096 23.9934 124.927 23.821C124.758 23.6454 124.67 23.4332 124.663 23.1847C124.66 22.9361 124.748 22.7289 124.927 22.5632C125.106 22.3942 125.316 22.3097 125.558 22.3097C125.803 22.3097 126.015 22.3958 126.194 22.5682C126.373 22.7405 126.459 22.946 126.453 23.1847C126.45 23.3504 126.406 23.5012 126.324 23.6371C126.244 23.773 126.136 23.8807 126 23.9602C125.868 24.0398 125.72 24.0795 125.558 24.0795Z" fill="#1F1F1F"/>
<path d="M148.339 14.9214C148.1 14.3672 147.755 13.865 147.323 13.4428C146.891 13.0195 146.382 12.683 145.823 12.4518C145.244 12.211 144.622 12.0878 143.995 12.0893C143.114 12.0893 142.255 12.3303 141.509 12.7857C141.33 12.8946 141.161 13.0143 141 13.1446C140.839 13.0143 140.67 12.8946 140.491 12.7857C139.745 12.3303 138.886 12.0893 138.005 12.0893C137.371 12.0893 136.757 12.2107 136.177 12.4518C135.616 12.6839 135.111 13.0178 134.677 13.4428C134.245 13.8645 133.899 14.3668 133.661 14.9214C133.412 15.4982 133.286 16.1107 133.286 16.7411C133.286 17.3357 133.407 17.9553 133.648 18.5857C133.85 19.1125 134.139 19.6589 134.509 20.2107C135.095 21.0839 135.9 21.9946 136.9 22.9178C138.557 24.4482 140.198 25.5053 140.268 25.5482L140.691 25.8196C140.879 25.9393 141.12 25.9393 141.307 25.8196L141.73 25.5482C141.8 25.5036 143.439 24.4482 145.098 22.9178C146.098 21.9946 146.904 21.0839 147.489 20.2107C147.859 19.6589 148.15 19.1125 148.35 18.5857C148.591 17.9553 148.712 17.3357 148.712 16.7411C148.714 16.1107 148.587 15.4982 148.339 14.9214Z" fill="#F759AB"/>
</svg>
