<svg width="715" height="715" viewBox="0 0 715 715" fill="none" xmlns="http://www.w3.org/2000/svg">
<circle cx="357.5" cy="357.5" r="355.5" fill="white" stroke="#BDE3FF" stroke-width="4" stroke-linecap="round" stroke-dasharray="16 10"/>
<path d="M320.553 23.8182V41.2727H317.92V23.8182H320.553ZM326.276 33.5V41.2727H323.728V28.1818H326.174V30.3125H326.336C326.637 29.6193 327.109 29.0625 327.751 28.642C328.399 28.2216 329.214 28.0113 330.197 28.0113C331.089 28.0113 331.87 28.1988 332.541 28.5738C333.211 28.9432 333.731 29.4943 334.1 30.2273C334.47 30.9602 334.654 31.8665 334.654 32.946V41.2727H332.106V33.2528C332.106 32.304 331.859 31.5625 331.364 31.0284C330.87 30.4886 330.191 30.2187 329.328 30.2187C328.737 30.2187 328.211 30.3466 327.751 30.6023C327.296 30.8579 326.935 31.2329 326.668 31.7273C326.407 32.2159 326.276 32.8068 326.276 33.5ZM342.516 41.5284C341.46 41.5284 340.516 41.2585 339.687 40.7187C338.863 40.1733 338.215 39.3977 337.744 38.392C337.278 37.3807 337.045 36.1676 337.045 34.7528C337.045 33.338 337.281 32.1278 337.752 31.1221C338.229 30.1165 338.883 29.3466 339.712 28.8125C340.542 28.2784 341.482 28.0113 342.533 28.0113C343.346 28.0113 343.999 28.1477 344.494 28.4204C344.994 28.6875 345.38 29 345.653 29.3579C345.931 29.7159 346.147 30.0312 346.3 30.304H346.454V23.8182H349.002V41.2727H346.514V39.2358H346.3C346.147 39.5142 345.925 39.8324 345.636 40.1903C345.352 40.5483 344.96 40.8608 344.46 41.1278C343.96 41.3949 343.312 41.5284 342.516 41.5284ZM343.079 39.3551C343.812 39.3551 344.431 39.1619 344.937 38.7755C345.448 38.3835 345.835 37.8409 346.096 37.1477C346.363 36.4545 346.497 35.6477 346.497 34.7273C346.497 33.8182 346.366 33.0227 346.104 32.3409C345.843 31.6591 345.46 31.1278 344.954 30.7471C344.448 30.3665 343.823 30.1761 343.079 30.1761C342.312 30.1761 341.673 30.375 341.161 30.7727C340.65 31.1704 340.264 31.713 340.002 32.4005C339.747 33.088 339.619 33.8636 339.619 34.7273C339.619 35.6023 339.749 36.3892 340.011 37.088C340.272 37.7869 340.658 38.3409 341.17 38.75C341.687 39.1534 342.323 39.3551 343.079 39.3551ZM352.183 41.2727V28.1818H354.732V41.2727H352.183ZM353.47 26.1619C353.027 26.1619 352.646 26.0142 352.328 25.7187C352.016 25.4176 351.859 25.0596 351.859 24.6449C351.859 24.2244 352.016 23.8665 352.328 23.571C352.646 23.2699 353.027 23.1193 353.47 23.1193C353.913 23.1193 354.291 23.2699 354.604 23.571C354.922 23.8665 355.081 24.2244 355.081 24.6449C355.081 25.0596 354.922 25.4176 354.604 25.7187C354.291 26.0142 353.913 26.1619 353.47 26.1619ZM357.704 41.2727V28.1818H360.167V30.2613H360.303C360.542 29.5568 360.962 29.0028 361.565 28.5994C362.173 28.1903 362.86 27.9858 363.627 27.9858C363.786 27.9858 363.974 27.9915 364.19 28.0028C364.411 28.0142 364.584 28.0284 364.709 28.0454V30.4829C364.607 30.4545 364.425 30.4233 364.164 30.3892C363.903 30.3494 363.641 30.3295 363.38 30.3295C362.778 30.3295 362.241 30.4574 361.769 30.713C361.303 30.963 360.934 31.3125 360.661 31.7613C360.388 32.2045 360.252 32.7102 360.252 33.2784V41.2727H357.704ZM371.632 41.5369C370.342 41.5369 369.231 41.2613 368.3 40.7102C367.374 40.1534 366.658 39.3721 366.152 38.3665C365.652 37.3551 365.402 36.1704 365.402 34.8125C365.402 33.4716 365.652 32.2898 366.152 31.267C366.658 30.2443 367.362 29.446 368.266 28.8721C369.175 28.2983 370.237 28.0113 371.453 28.0113C372.192 28.0113 372.908 28.1335 373.601 28.3778C374.294 28.6221 374.916 29.0057 375.467 29.5284C376.018 30.0511 376.453 30.7301 376.771 31.5653C377.089 32.3949 377.249 33.4034 377.249 34.5909V35.4943H366.842V33.5852H374.751C374.751 32.9148 374.615 32.321 374.342 31.804C374.07 31.2812 373.686 30.8693 373.192 30.5682C372.703 30.267 372.129 30.1165 371.47 30.1165C370.754 30.1165 370.129 30.2926 369.595 30.6449C369.067 30.9915 368.658 31.446 368.368 32.0085C368.084 32.5653 367.942 33.1704 367.942 33.8238V35.3153C367.942 36.1903 368.095 36.9346 368.402 37.5483C368.714 38.1619 369.149 38.6307 369.706 38.9545C370.263 39.2727 370.913 39.4318 371.658 39.4318C372.141 39.4318 372.581 39.3636 372.979 39.2273C373.376 39.0852 373.72 38.875 374.01 38.5966C374.3 38.3182 374.521 37.9744 374.675 37.5653L377.087 38C376.893 38.7102 376.547 39.3324 376.047 39.8665C375.553 40.3949 374.93 40.8068 374.18 41.1023C373.436 41.392 372.587 41.5369 371.632 41.5369ZM385.134 41.5369C383.867 41.5369 382.776 41.25 381.861 40.6761C380.952 40.0966 380.253 39.2983 379.765 38.2812C379.276 37.2642 379.032 36.0994 379.032 34.7869C379.032 33.4574 379.282 32.2841 379.782 31.267C380.282 30.2443 380.986 29.446 381.896 28.8721C382.805 28.2983 383.876 28.0113 385.109 28.0113C386.103 28.0113 386.989 28.196 387.768 28.5653C388.546 28.929 389.174 29.4403 389.651 30.0994C390.134 30.7585 390.421 31.5284 390.512 32.4091H388.032C387.896 31.7954 387.583 31.267 387.094 30.8238C386.611 30.3807 385.964 30.1591 385.151 30.1591C384.441 30.1591 383.819 30.3466 383.285 30.7216C382.756 31.0909 382.344 31.6193 382.049 32.3068C381.753 32.9886 381.606 33.7954 381.606 34.7273C381.606 35.6818 381.751 36.5057 382.04 37.1988C382.33 37.892 382.739 38.429 383.268 38.8096C383.802 39.1903 384.43 39.3807 385.151 39.3807C385.634 39.3807 386.072 39.2926 386.464 39.1165C386.861 38.9346 387.194 38.6761 387.461 38.3409C387.734 38.0057 387.924 37.6023 388.032 37.1307H390.512C390.421 37.9773 390.146 38.7329 389.685 39.3977C389.225 40.0625 388.609 40.5852 387.836 40.9659C387.069 41.3466 386.168 41.5369 385.134 41.5369ZM398.892 28.1818V30.2273H391.741V28.1818H398.892ZM393.659 25.0454H396.207V37.429C396.207 37.9233 396.281 38.2954 396.429 38.5454C396.577 38.7898 396.767 38.9574 397 39.0483C397.239 39.1335 397.497 39.1761 397.775 39.1761C397.98 39.1761 398.159 39.1619 398.312 39.1335C398.466 39.1051 398.585 39.0824 398.67 39.0653L399.131 41.1704C398.983 41.2273 398.773 41.2841 398.5 41.3409C398.227 41.4034 397.886 41.4375 397.477 41.4432C396.807 41.4545 396.182 41.3352 395.602 41.0852C395.023 40.8352 394.554 40.4488 394.196 39.9261C393.838 39.4034 393.659 38.7471 393.659 37.9574V25.0454Z" fill="#1E1E1E"/>
<circle cx="357.5" cy="318.5" r="245.5" stroke="#E4CCFF" stroke-width="4" stroke-linecap="round" stroke-dasharray="16 10"/>
<path d="M331.872 116.273H326.222V98.8182H332.051C333.761 98.8182 335.23 99.1676 336.457 99.8665C337.685 100.56 338.625 101.557 339.278 102.858C339.938 104.153 340.267 105.707 340.267 107.52C340.267 109.338 339.935 110.901 339.27 112.207C338.611 113.514 337.656 114.52 336.406 115.224C335.156 115.923 333.645 116.273 331.872 116.273ZM328.855 113.972H331.727C333.057 113.972 334.162 113.722 335.043 113.222C335.923 112.716 336.582 111.986 337.02 111.031C337.457 110.071 337.676 108.901 337.676 107.52C337.676 106.151 337.457 104.989 337.02 104.034C336.588 103.08 335.943 102.355 335.085 101.861C334.227 101.366 333.162 101.119 331.889 101.119H328.855V113.972ZM342.881 116.273V103.182H345.43V116.273H342.881ZM344.168 101.162C343.725 101.162 343.345 101.014 343.026 100.719C342.714 100.418 342.558 100.06 342.558 99.6449C342.558 99.2244 342.714 98.8665 343.026 98.571C343.345 98.2699 343.725 98.1193 344.168 98.1193C344.612 98.1193 344.989 98.2699 345.302 98.571C345.62 98.8665 345.779 99.2244 345.779 99.6449C345.779 100.06 345.62 100.418 345.302 100.719C344.989 101.014 344.612 101.162 344.168 101.162ZM348.402 116.273V103.182H350.865V105.261H351.001C351.24 104.557 351.661 104.003 352.263 103.599C352.871 103.19 353.558 102.986 354.325 102.986C354.484 102.986 354.672 102.991 354.888 103.003C355.109 103.014 355.283 103.028 355.408 103.045V105.483C355.305 105.455 355.124 105.423 354.862 105.389C354.601 105.349 354.34 105.33 354.078 105.33C353.476 105.33 352.939 105.457 352.467 105.713C352.001 105.963 351.632 106.312 351.359 106.761C351.087 107.205 350.95 107.71 350.95 108.278V116.273H348.402ZM362.33 116.537C361.04 116.537 359.93 116.261 358.998 115.71C358.072 115.153 357.356 114.372 356.85 113.366C356.35 112.355 356.1 111.17 356.1 109.812C356.1 108.472 356.35 107.29 356.85 106.267C357.356 105.244 358.06 104.446 358.964 103.872C359.873 103.298 360.935 103.011 362.151 103.011C362.89 103.011 363.606 103.134 364.299 103.378C364.992 103.622 365.614 104.006 366.165 104.528C366.717 105.051 367.151 105.73 367.469 106.565C367.788 107.395 367.947 108.403 367.947 109.591V110.494H357.54V108.585H365.45C365.45 107.915 365.313 107.321 365.04 106.804C364.768 106.281 364.384 105.869 363.89 105.568C363.401 105.267 362.827 105.116 362.168 105.116C361.452 105.116 360.827 105.293 360.293 105.645C359.765 105.991 359.356 106.446 359.066 107.009C358.782 107.565 358.64 108.17 358.64 108.824V110.315C358.64 111.19 358.793 111.935 359.1 112.548C359.413 113.162 359.847 113.631 360.404 113.955C360.961 114.273 361.611 114.432 362.356 114.432C362.839 114.432 363.279 114.364 363.677 114.227C364.075 114.085 364.418 113.875 364.708 113.597C364.998 113.318 365.219 112.974 365.373 112.565L367.785 113C367.592 113.71 367.245 114.332 366.745 114.866C366.251 115.395 365.629 115.807 364.879 116.102C364.134 116.392 363.285 116.537 362.33 116.537ZM375.832 116.537C374.565 116.537 373.474 116.25 372.56 115.676C371.651 115.097 370.952 114.298 370.463 113.281C369.974 112.264 369.73 111.099 369.73 109.787C369.73 108.457 369.98 107.284 370.48 106.267C370.98 105.244 371.685 104.446 372.594 103.872C373.503 103.298 374.574 103.011 375.807 103.011C376.801 103.011 377.687 103.196 378.466 103.565C379.244 103.929 379.872 104.44 380.349 105.099C380.832 105.759 381.119 106.528 381.21 107.409H378.73C378.594 106.795 378.281 106.267 377.793 105.824C377.31 105.381 376.662 105.159 375.849 105.159C375.139 105.159 374.517 105.347 373.983 105.722C373.454 106.091 373.043 106.619 372.747 107.307C372.452 107.989 372.304 108.795 372.304 109.727C372.304 110.682 372.449 111.506 372.739 112.199C373.028 112.892 373.437 113.429 373.966 113.81C374.5 114.19 375.128 114.381 375.849 114.381C376.332 114.381 376.77 114.293 377.162 114.116C377.56 113.935 377.892 113.676 378.159 113.341C378.432 113.006 378.622 112.602 378.73 112.131H381.21C381.119 112.977 380.844 113.733 380.383 114.398C379.923 115.062 379.307 115.585 378.534 115.966C377.767 116.347 376.866 116.537 375.832 116.537ZM389.59 103.182V105.227H382.44V103.182H389.59ZM384.357 100.045H386.905V112.429C386.905 112.923 386.979 113.295 387.127 113.545C387.275 113.79 387.465 113.957 387.698 114.048C387.937 114.134 388.195 114.176 388.474 114.176C388.678 114.176 388.857 114.162 389.011 114.134C389.164 114.105 389.283 114.082 389.369 114.065L389.829 116.17C389.681 116.227 389.471 116.284 389.198 116.341C388.925 116.403 388.584 116.437 388.175 116.443C387.505 116.455 386.88 116.335 386.3 116.085C385.721 115.835 385.252 115.449 384.894 114.926C384.536 114.403 384.357 113.747 384.357 112.957V100.045Z" fill="#1E1E1E"/>
<circle cx="275" cy="276" r="112" stroke="#AFF4C6" stroke-width="4" stroke-linecap="round" stroke-dasharray="16 10"/>
<path d="M264.63 200.494H261.971C261.869 199.926 261.678 199.426 261.4 198.994C261.122 198.562 260.781 198.196 260.377 197.895C259.974 197.594 259.522 197.366 259.022 197.213C258.528 197.06 258.002 196.983 257.445 196.983C256.44 196.983 255.539 197.236 254.744 197.741C253.954 198.247 253.329 198.989 252.869 199.966C252.414 200.943 252.187 202.136 252.187 203.545C252.187 204.966 252.414 206.165 252.869 207.142C253.329 208.119 253.957 208.858 254.752 209.358C255.548 209.858 256.443 210.108 257.437 210.108C257.988 210.108 258.511 210.034 259.005 209.886C259.505 209.733 259.957 209.509 260.36 209.213C260.764 208.918 261.104 208.557 261.383 208.131C261.667 207.699 261.863 207.205 261.971 206.648L264.63 206.656C264.488 207.514 264.212 208.304 263.803 209.026C263.4 209.741 262.88 210.361 262.244 210.884C261.613 211.401 260.891 211.801 260.079 212.085C259.266 212.369 258.38 212.511 257.42 212.511C255.908 212.511 254.562 212.153 253.38 211.437C252.198 210.716 251.266 209.685 250.585 208.344C249.908 207.003 249.57 205.403 249.57 203.545C249.57 201.682 249.911 200.082 250.593 198.747C251.275 197.406 252.207 196.378 253.389 195.662C254.57 194.94 255.914 194.58 257.42 194.58C258.346 194.58 259.21 194.713 260.011 194.98C260.818 195.241 261.542 195.628 262.184 196.139C262.826 196.645 263.357 197.264 263.778 197.997C264.198 198.724 264.482 199.557 264.63 200.494ZM272.635 212.537C271.408 212.537 270.337 212.256 269.422 211.693C268.507 211.131 267.797 210.344 267.291 209.332C266.786 208.321 266.533 207.139 266.533 205.787C266.533 204.429 266.786 203.241 267.291 202.224C267.797 201.207 268.507 200.418 269.422 199.855C270.337 199.293 271.408 199.011 272.635 199.011C273.862 199.011 274.933 199.293 275.848 199.855C276.763 200.418 277.473 201.207 277.979 202.224C278.484 203.241 278.737 204.429 278.737 205.787C278.737 207.139 278.484 208.321 277.979 209.332C277.473 210.344 276.763 211.131 275.848 211.693C274.933 212.256 273.862 212.537 272.635 212.537ZM272.643 210.398C273.439 210.398 274.098 210.187 274.621 209.767C275.143 209.347 275.53 208.787 275.78 208.088C276.036 207.389 276.163 206.619 276.163 205.778C276.163 204.943 276.036 204.176 275.78 203.477C275.53 202.773 275.143 202.207 274.621 201.781C274.098 201.355 273.439 201.142 272.643 201.142C271.842 201.142 271.178 201.355 270.649 201.781C270.126 202.207 269.737 202.773 269.482 203.477C269.232 204.176 269.107 204.943 269.107 205.778C269.107 206.619 269.232 207.389 269.482 208.088C269.737 208.787 270.126 209.347 270.649 209.767C271.178 210.187 271.842 210.398 272.643 210.398ZM281.126 212.273V199.182H283.589V201.261H283.725C283.964 200.557 284.384 200.003 284.986 199.599C285.594 199.19 286.282 198.986 287.049 198.986C287.208 198.986 287.396 198.991 287.611 199.003C287.833 199.014 288.006 199.028 288.131 199.045V201.483C288.029 201.455 287.847 201.423 287.586 201.389C287.325 201.349 287.063 201.33 286.802 201.33C286.2 201.33 285.663 201.457 285.191 201.713C284.725 201.963 284.356 202.312 284.083 202.761C283.81 203.205 283.674 203.71 283.674 204.278V212.273H281.126ZM295.054 212.537C293.764 212.537 292.653 212.261 291.722 211.71C290.795 211.153 290.079 210.372 289.574 209.366C289.074 208.355 288.824 207.17 288.824 205.812C288.824 204.472 289.074 203.29 289.574 202.267C290.079 201.244 290.784 200.446 291.687 199.872C292.597 199.298 293.659 199.011 294.875 199.011C295.614 199.011 296.329 199.134 297.023 199.378C297.716 199.622 298.338 200.006 298.889 200.528C299.44 201.051 299.875 201.73 300.193 202.565C300.511 203.395 300.67 204.403 300.67 205.591V206.494H290.264V204.585H298.173C298.173 203.915 298.037 203.321 297.764 202.804C297.491 202.281 297.108 201.869 296.614 201.568C296.125 201.267 295.551 201.116 294.892 201.116C294.176 201.116 293.551 201.293 293.017 201.645C292.489 201.991 292.079 202.446 291.79 203.009C291.506 203.565 291.364 204.17 291.364 204.824V206.315C291.364 207.19 291.517 207.935 291.824 208.548C292.136 209.162 292.571 209.631 293.128 209.955C293.685 210.273 294.335 210.432 295.079 210.432C295.562 210.432 296.003 210.364 296.401 210.227C296.798 210.085 297.142 209.875 297.432 209.597C297.722 209.318 297.943 208.974 298.097 208.565L300.508 209C300.315 209.71 299.969 210.332 299.469 210.866C298.974 211.395 298.352 211.807 297.602 212.102C296.858 212.392 296.008 212.537 295.054 212.537Z" fill="#1E1E1E"/>
<rect x="211" y="243" width="128" height="66.4216" rx="6" fill="#AFF4C6"/>
<path d="M238.333 285H232.683V267.545H238.512C240.222 267.545 241.691 267.895 242.918 268.594C244.146 269.287 245.086 270.284 245.739 271.585C246.399 272.881 246.728 274.435 246.728 276.247C246.728 278.065 246.396 279.628 245.731 280.935C245.072 282.241 244.117 283.247 242.867 283.952C241.617 284.651 240.106 285 238.333 285ZM235.316 282.699H238.188C239.518 282.699 240.623 282.449 241.504 281.949C242.384 281.443 243.043 280.713 243.481 279.759C243.918 278.798 244.137 277.628 244.137 276.247C244.137 274.878 243.918 273.716 243.481 272.761C243.049 271.807 242.404 271.082 241.546 270.588C240.688 270.094 239.623 269.847 238.35 269.847H235.316V282.699ZM254.984 285.264C253.695 285.264 252.584 284.989 251.652 284.438C250.726 283.881 250.01 283.099 249.504 282.094C249.004 281.082 248.754 279.898 248.754 278.54C248.754 277.199 249.004 276.017 249.504 274.994C250.01 273.972 250.715 273.173 251.618 272.599C252.527 272.026 253.59 271.739 254.805 271.739C255.544 271.739 256.26 271.861 256.953 272.105C257.646 272.349 258.269 272.733 258.82 273.256C259.371 273.778 259.805 274.457 260.124 275.293C260.442 276.122 260.601 277.131 260.601 278.318V279.222H250.195V277.312H258.104C258.104 276.642 257.967 276.048 257.695 275.531C257.422 275.009 257.038 274.597 256.544 274.295C256.055 273.994 255.482 273.844 254.822 273.844C254.107 273.844 253.482 274.02 252.947 274.372C252.419 274.719 252.01 275.173 251.72 275.736C251.436 276.293 251.294 276.898 251.294 277.551V279.043C251.294 279.918 251.447 280.662 251.754 281.276C252.067 281.889 252.501 282.358 253.058 282.682C253.615 283 254.266 283.159 255.01 283.159C255.493 283.159 255.933 283.091 256.331 282.955C256.729 282.812 257.072 282.602 257.362 282.324C257.652 282.045 257.874 281.702 258.027 281.293L260.439 281.727C260.246 282.437 259.899 283.06 259.399 283.594C258.905 284.122 258.283 284.534 257.533 284.83C256.788 285.119 255.939 285.264 254.984 285.264ZM273.796 271.909L269.049 285H266.322L261.566 271.909H264.302L267.617 281.983H267.754L271.06 271.909H273.796ZM291.102 276.273C291.102 278.136 290.761 279.739 290.079 281.08C289.397 282.415 288.462 283.443 287.275 284.165C286.093 284.881 284.749 285.239 283.244 285.239C281.732 285.239 280.383 284.881 279.195 284.165C278.013 283.443 277.082 282.412 276.4 281.071C275.718 279.73 275.377 278.131 275.377 276.273C275.377 274.409 275.718 272.81 276.4 271.474C277.082 270.134 278.013 269.105 279.195 268.389C280.383 267.668 281.732 267.307 283.244 267.307C284.749 267.307 286.093 267.668 287.275 268.389C288.462 269.105 289.397 270.134 290.079 271.474C290.761 272.81 291.102 274.409 291.102 276.273ZM288.494 276.273C288.494 274.852 288.263 273.656 287.803 272.685C287.349 271.707 286.724 270.969 285.928 270.469C285.138 269.963 284.244 269.71 283.244 269.71C282.238 269.71 281.34 269.963 280.55 270.469C279.761 270.969 279.136 271.707 278.675 272.685C278.221 273.656 277.994 274.852 277.994 276.273C277.994 277.693 278.221 278.892 278.675 279.869C279.136 280.841 279.761 281.58 280.55 282.085C281.34 282.585 282.238 282.835 283.244 282.835C284.244 282.835 285.138 282.585 285.928 282.085C286.724 281.58 287.349 280.841 287.803 279.869C288.263 278.892 288.494 277.693 288.494 276.273ZM293.724 289.909V271.909H296.213V274.031H296.426C296.574 273.759 296.787 273.443 297.065 273.085C297.344 272.727 297.73 272.415 298.224 272.148C298.719 271.875 299.372 271.739 300.185 271.739C301.241 271.739 302.185 272.006 303.014 272.54C303.844 273.074 304.494 273.844 304.966 274.849C305.443 275.855 305.682 277.065 305.682 278.48C305.682 279.895 305.446 281.108 304.974 282.119C304.503 283.125 303.855 283.901 303.031 284.446C302.207 284.986 301.267 285.256 300.21 285.256C299.415 285.256 298.764 285.122 298.258 284.855C297.758 284.588 297.366 284.276 297.082 283.918C296.798 283.56 296.579 283.241 296.426 282.963H296.273V289.909H293.724ZM296.222 278.455C296.222 279.375 296.355 280.182 296.622 280.875C296.889 281.568 297.276 282.111 297.781 282.503C298.287 282.889 298.906 283.082 299.639 283.082C300.401 283.082 301.037 282.881 301.548 282.477C302.06 282.068 302.446 281.514 302.707 280.815C302.974 280.116 303.108 279.33 303.108 278.455C303.108 277.591 302.977 276.815 302.716 276.128C302.46 275.44 302.074 274.898 301.557 274.5C301.045 274.102 300.406 273.903 299.639 273.903C298.901 273.903 298.276 274.094 297.764 274.474C297.258 274.855 296.875 275.386 296.614 276.068C296.352 276.75 296.222 277.545 296.222 278.455ZM317.891 275.105L315.581 275.514C315.484 275.219 315.331 274.937 315.121 274.67C314.916 274.403 314.638 274.185 314.285 274.014C313.933 273.844 313.493 273.759 312.964 273.759C312.243 273.759 311.641 273.92 311.158 274.244C310.675 274.562 310.433 274.974 310.433 275.48C310.433 275.918 310.595 276.27 310.919 276.537C311.243 276.804 311.766 277.023 312.487 277.193L314.567 277.67C315.771 277.949 316.669 278.378 317.26 278.957C317.851 279.537 318.146 280.29 318.146 281.216C318.146 282 317.919 282.699 317.464 283.312C317.016 283.92 316.388 284.398 315.581 284.744C314.78 285.091 313.851 285.264 312.794 285.264C311.328 285.264 310.132 284.952 309.206 284.327C308.28 283.696 307.712 282.801 307.501 281.642L309.964 281.267C310.118 281.909 310.433 282.395 310.91 282.724C311.388 283.048 312.01 283.21 312.777 283.21C313.612 283.21 314.28 283.037 314.78 282.69C315.28 282.338 315.53 281.909 315.53 281.403C315.53 280.994 315.376 280.651 315.07 280.372C314.768 280.094 314.305 279.884 313.68 279.741L311.464 279.256C310.243 278.977 309.339 278.534 308.754 277.926C308.175 277.318 307.885 276.548 307.885 275.616C307.885 274.844 308.101 274.168 308.533 273.588C308.964 273.009 309.561 272.557 310.322 272.233C311.084 271.903 311.956 271.739 312.939 271.739C314.354 271.739 315.467 272.045 316.28 272.659C317.092 273.267 317.629 274.082 317.891 275.105Z" fill="black" fill-opacity="0.8"/>
<rect x="416" y="322" width="130" height="66" rx="6" fill="#E4CCFF"/>
<path d="M439.086 364V346.545H445.308C446.666 346.545 447.791 346.793 448.683 347.287C449.575 347.781 450.243 348.457 450.686 349.315C451.129 350.168 451.351 351.128 451.351 352.196C451.351 353.27 451.126 354.236 450.677 355.094C450.234 355.946 449.564 356.622 448.666 357.122C447.774 357.616 446.652 357.864 445.299 357.864H441.021V355.631H445.061C445.919 355.631 446.615 355.483 447.149 355.188C447.683 354.886 448.075 354.477 448.325 353.96C448.575 353.443 448.7 352.855 448.7 352.196C448.7 351.537 448.575 350.952 448.325 350.44C448.075 349.929 447.68 349.528 447.14 349.239C446.606 348.949 445.902 348.804 445.027 348.804H441.72V364H439.086ZM453.777 364V350.909H456.24V352.989H456.377C456.615 352.284 457.036 351.73 457.638 351.327C458.246 350.918 458.934 350.713 459.701 350.713C459.86 350.713 460.047 350.719 460.263 350.73C460.485 350.741 460.658 350.756 460.783 350.773V353.21C460.681 353.182 460.499 353.151 460.238 353.116C459.976 353.077 459.715 353.057 459.454 353.057C458.851 353.057 458.314 353.185 457.843 353.44C457.377 353.69 457.008 354.04 456.735 354.489C456.462 354.932 456.326 355.437 456.326 356.006V364H453.777ZM467.578 364.264C466.351 364.264 465.28 363.983 464.365 363.42C463.45 362.858 462.74 362.071 462.234 361.06C461.728 360.048 461.476 358.866 461.476 357.514C461.476 356.156 461.728 354.969 462.234 353.952C462.74 352.935 463.45 352.145 464.365 351.582C465.28 351.02 466.351 350.739 467.578 350.739C468.805 350.739 469.876 351.02 470.791 351.582C471.706 352.145 472.416 352.935 472.922 353.952C473.427 354.969 473.68 356.156 473.68 357.514C473.68 358.866 473.427 360.048 472.922 361.06C472.416 362.071 471.706 362.858 470.791 363.42C469.876 363.983 468.805 364.264 467.578 364.264ZM467.586 362.125C468.382 362.125 469.041 361.915 469.564 361.494C470.086 361.074 470.473 360.514 470.723 359.815C470.978 359.116 471.106 358.347 471.106 357.506C471.106 356.67 470.978 355.903 470.723 355.205C470.473 354.5 470.086 353.935 469.564 353.509C469.041 353.082 468.382 352.869 467.586 352.869C466.785 352.869 466.12 353.082 465.592 353.509C465.069 353.935 464.68 354.5 464.424 355.205C464.174 355.903 464.049 356.67 464.049 357.506C464.049 358.347 464.174 359.116 464.424 359.815C464.68 360.514 465.069 361.074 465.592 361.494C466.12 361.915 466.785 362.125 467.586 362.125ZM480.969 364.256C479.912 364.256 478.969 363.986 478.14 363.446C477.316 362.901 476.668 362.125 476.196 361.119C475.73 360.108 475.498 358.895 475.498 357.48C475.498 356.065 475.733 354.855 476.205 353.849C476.682 352.844 477.336 352.074 478.165 351.54C478.995 351.006 479.935 350.739 480.986 350.739C481.799 350.739 482.452 350.875 482.946 351.148C483.446 351.415 483.833 351.727 484.105 352.085C484.384 352.443 484.6 352.759 484.753 353.031H484.907V346.545H487.455V364H484.966V361.963H484.753C484.6 362.241 484.378 362.56 484.088 362.918C483.804 363.276 483.412 363.588 482.912 363.855C482.412 364.122 481.765 364.256 480.969 364.256ZM481.532 362.082C482.265 362.082 482.884 361.889 483.39 361.503C483.901 361.111 484.287 360.568 484.549 359.875C484.816 359.182 484.949 358.375 484.949 357.455C484.949 356.545 484.819 355.75 484.557 355.068C484.296 354.386 483.912 353.855 483.407 353.474C482.901 353.094 482.276 352.903 481.532 352.903C480.765 352.903 480.125 353.102 479.614 353.5C479.103 353.898 478.716 354.44 478.455 355.128C478.199 355.815 478.071 356.591 478.071 357.455C478.071 358.33 478.202 359.116 478.463 359.815C478.725 360.514 479.111 361.068 479.623 361.477C480.14 361.881 480.776 362.082 481.532 362.082ZM498.929 358.571V350.909H501.485V364H498.98V361.733H498.843C498.542 362.432 498.059 363.014 497.394 363.48C496.735 363.94 495.914 364.17 494.931 364.17C494.091 364.17 493.346 363.986 492.698 363.616C492.056 363.241 491.551 362.688 491.181 361.955C490.818 361.222 490.636 360.315 490.636 359.236V350.909H493.184V358.929C493.184 359.821 493.431 360.531 493.926 361.06C494.42 361.588 495.062 361.852 495.852 361.852C496.329 361.852 496.804 361.733 497.275 361.494C497.752 361.256 498.147 360.895 498.46 360.412C498.778 359.929 498.934 359.315 498.929 358.571ZM509.968 364.264C508.701 364.264 507.61 363.977 506.695 363.403C505.786 362.824 505.087 362.026 504.598 361.009C504.11 359.991 503.865 358.827 503.865 357.514C503.865 356.185 504.115 355.011 504.615 353.994C505.115 352.972 505.82 352.173 506.729 351.599C507.638 351.026 508.709 350.739 509.942 350.739C510.936 350.739 511.823 350.923 512.601 351.293C513.38 351.656 514.007 352.168 514.485 352.827C514.968 353.486 515.255 354.256 515.345 355.136H512.865C512.729 354.523 512.416 353.994 511.928 353.551C511.445 353.108 510.797 352.886 509.985 352.886C509.274 352.886 508.652 353.074 508.118 353.449C507.59 353.818 507.178 354.347 506.882 355.034C506.587 355.716 506.439 356.523 506.439 357.455C506.439 358.409 506.584 359.233 506.874 359.926C507.164 360.619 507.573 361.156 508.101 361.537C508.635 361.918 509.263 362.108 509.985 362.108C510.468 362.108 510.905 362.02 511.297 361.844C511.695 361.662 512.027 361.403 512.294 361.068C512.567 360.733 512.757 360.33 512.865 359.858H515.345C515.255 360.705 514.979 361.46 514.519 362.125C514.059 362.79 513.442 363.312 512.669 363.693C511.902 364.074 511.002 364.264 509.968 364.264ZM523.725 350.909V352.955H516.575V350.909H523.725ZM518.492 347.773H521.041V360.156C521.041 360.651 521.115 361.023 521.262 361.273C521.41 361.517 521.6 361.685 521.833 361.776C522.072 361.861 522.331 361.903 522.609 361.903C522.813 361.903 522.992 361.889 523.146 361.861C523.299 361.832 523.419 361.81 523.504 361.793L523.964 363.898C523.816 363.955 523.606 364.011 523.333 364.068C523.061 364.131 522.72 364.165 522.311 364.17C521.64 364.182 521.015 364.062 520.436 363.812C519.856 363.562 519.387 363.176 519.029 362.653C518.671 362.131 518.492 361.474 518.492 360.685V347.773Z" fill="black" fill-opacity="0.8"/>
<rect x="444" y="224" width="73" height="66" rx="6" fill="#E4CCFF"/>
<path d="M477.03 248.545H479.672V260.026C479.672 261.247 479.385 262.33 478.811 263.273C478.238 264.21 477.431 264.949 476.391 265.489C475.351 266.023 474.132 266.29 472.735 266.29C471.343 266.29 470.127 266.023 469.087 265.489C468.047 264.949 467.24 264.21 466.667 263.273C466.093 262.33 465.806 261.247 465.806 260.026V248.545H468.439V259.812C468.439 260.602 468.613 261.304 468.959 261.918C469.311 262.531 469.809 263.014 470.451 263.366C471.093 263.713 471.854 263.886 472.735 263.886C473.621 263.886 474.385 263.713 475.027 263.366C475.675 263.014 476.169 262.531 476.51 261.918C476.857 261.304 477.03 260.602 477.03 259.812V248.545ZM484.877 248.545L489.054 255.372H489.19L493.366 248.545H496.417L490.98 257.273L496.451 266H493.383L489.19 259.267H489.054L484.86 266H481.792L487.358 257.273L481.826 248.545H484.877Z" fill="black" fill-opacity="0.8"/>
<rect x="272" y="420" width="192" height="66" rx="6" fill="#E4CCFF"/>
<path d="M304.121 449.131C304.03 448.324 303.655 447.699 302.996 447.256C302.337 446.807 301.508 446.582 300.508 446.582C299.792 446.582 299.172 446.696 298.65 446.923C298.127 447.145 297.721 447.452 297.431 447.844C297.147 448.23 297.005 448.67 297.005 449.165C297.005 449.58 297.101 449.937 297.295 450.239C297.493 450.54 297.752 450.793 298.07 450.997C298.394 451.196 298.741 451.364 299.11 451.5C299.479 451.631 299.834 451.739 300.175 451.824L301.88 452.267C302.437 452.403 303.008 452.588 303.593 452.821C304.178 453.054 304.721 453.361 305.221 453.741C305.721 454.122 306.124 454.594 306.431 455.156C306.743 455.719 306.9 456.392 306.9 457.176C306.9 458.165 306.644 459.043 306.133 459.81C305.627 460.577 304.891 461.182 303.925 461.625C302.965 462.068 301.803 462.29 300.439 462.29C299.133 462.29 298.002 462.082 297.047 461.668C296.093 461.253 295.346 460.665 294.806 459.903C294.266 459.136 293.968 458.227 293.911 457.176H296.553C296.604 457.807 296.809 458.332 297.167 458.753C297.53 459.168 297.993 459.477 298.556 459.682C299.124 459.881 299.746 459.98 300.422 459.98C301.167 459.98 301.829 459.864 302.408 459.631C302.993 459.392 303.454 459.062 303.789 458.642C304.124 458.216 304.292 457.719 304.292 457.151C304.292 456.634 304.144 456.21 303.849 455.881C303.559 455.551 303.164 455.278 302.664 455.062C302.17 454.847 301.61 454.656 300.985 454.491L298.922 453.929C297.525 453.548 296.417 452.989 295.599 452.25C294.786 451.511 294.38 450.534 294.38 449.318C294.38 448.312 294.653 447.435 295.198 446.685C295.743 445.935 296.482 445.352 297.414 444.938C298.346 444.517 299.397 444.307 300.567 444.307C301.749 444.307 302.792 444.514 303.695 444.929C304.604 445.344 305.32 445.915 305.843 446.642C306.366 447.364 306.638 448.193 306.661 449.131H304.121ZM310.997 466.909C310.616 466.909 310.27 466.878 309.957 466.815C309.645 466.759 309.412 466.696 309.258 466.628L309.872 464.54C310.338 464.665 310.753 464.719 311.116 464.702C311.48 464.685 311.801 464.548 312.079 464.293C312.363 464.037 312.613 463.619 312.829 463.04L313.145 462.17L308.355 448.909H311.082L314.398 459.068H314.534L317.849 448.909H320.585L315.19 463.747C314.94 464.429 314.622 465.006 314.236 465.477C313.849 465.955 313.389 466.313 312.855 466.551C312.321 466.79 311.702 466.909 310.997 466.909ZM332.334 452.105L330.024 452.514C329.927 452.219 329.774 451.937 329.564 451.67C329.359 451.403 329.081 451.185 328.728 451.014C328.376 450.844 327.936 450.759 327.407 450.759C326.686 450.759 326.084 450.92 325.601 451.244C325.118 451.562 324.876 451.974 324.876 452.48C324.876 452.918 325.038 453.27 325.362 453.537C325.686 453.804 326.209 454.023 326.93 454.193L329.01 454.67C330.214 454.949 331.112 455.378 331.703 455.957C332.294 456.537 332.589 457.29 332.589 458.216C332.589 459 332.362 459.699 331.907 460.312C331.459 460.92 330.831 461.398 330.024 461.744C329.223 462.091 328.294 462.264 327.237 462.264C325.771 462.264 324.575 461.952 323.649 461.327C322.723 460.696 322.155 459.801 321.944 458.642L324.407 458.267C324.561 458.909 324.876 459.395 325.353 459.724C325.831 460.048 326.453 460.21 327.22 460.21C328.055 460.21 328.723 460.037 329.223 459.69C329.723 459.338 329.973 458.909 329.973 458.403C329.973 457.994 329.819 457.651 329.513 457.372C329.211 457.094 328.748 456.884 328.123 456.741L325.907 456.256C324.686 455.977 323.782 455.534 323.197 454.926C322.618 454.318 322.328 453.548 322.328 452.616C322.328 451.844 322.544 451.168 322.976 450.588C323.407 450.009 324.004 449.557 324.765 449.233C325.527 448.903 326.399 448.739 327.382 448.739C328.797 448.739 329.91 449.045 330.723 449.659C331.535 450.267 332.072 451.082 332.334 452.105ZM341.046 448.909V450.955H333.895V448.909H341.046ZM335.813 445.773H338.361V458.156C338.361 458.651 338.435 459.023 338.583 459.273C338.731 459.517 338.921 459.685 339.154 459.776C339.392 459.861 339.651 459.903 339.929 459.903C340.134 459.903 340.313 459.889 340.466 459.861C340.62 459.832 340.739 459.81 340.824 459.793L341.285 461.898C341.137 461.955 340.927 462.011 340.654 462.068C340.381 462.131 340.04 462.165 339.631 462.17C338.961 462.182 338.336 462.062 337.756 461.812C337.177 461.562 336.708 461.176 336.35 460.653C335.992 460.131 335.813 459.474 335.813 458.685V445.773ZM348.91 462.264C347.62 462.264 346.51 461.989 345.578 461.438C344.652 460.881 343.936 460.099 343.43 459.094C342.93 458.082 342.68 456.898 342.68 455.54C342.68 454.199 342.93 453.017 343.43 451.994C343.936 450.972 344.64 450.173 345.544 449.599C346.453 449.026 347.515 448.739 348.731 448.739C349.47 448.739 350.186 448.861 350.879 449.105C351.572 449.349 352.194 449.733 352.745 450.256C353.297 450.778 353.731 451.457 354.049 452.293C354.368 453.122 354.527 454.131 354.527 455.318V456.222H344.12V454.312H352.03C352.03 453.642 351.893 453.048 351.62 452.531C351.348 452.009 350.964 451.597 350.47 451.295C349.981 450.994 349.407 450.844 348.748 450.844C348.032 450.844 347.407 451.02 346.873 451.372C346.345 451.719 345.936 452.173 345.646 452.736C345.362 453.293 345.22 453.898 345.22 454.551V456.043C345.22 456.918 345.373 457.662 345.68 458.276C345.993 458.889 346.427 459.358 346.984 459.682C347.541 460 348.191 460.159 348.936 460.159C349.419 460.159 349.859 460.091 350.257 459.955C350.655 459.812 350.998 459.602 351.288 459.324C351.578 459.045 351.799 458.702 351.953 458.293L354.365 458.727C354.172 459.437 353.825 460.06 353.325 460.594C352.831 461.122 352.209 461.534 351.459 461.83C350.714 462.119 349.865 462.264 348.91 462.264ZM356.898 462V448.909H359.344V451.04H359.506C359.779 450.318 360.225 449.756 360.844 449.352C361.463 448.943 362.205 448.739 363.069 448.739C363.944 448.739 364.677 448.943 365.267 449.352C365.864 449.761 366.304 450.324 366.588 451.04H366.725C367.037 450.341 367.534 449.784 368.216 449.369C368.898 448.949 369.711 448.739 370.654 448.739C371.841 448.739 372.81 449.111 373.56 449.855C374.316 450.599 374.694 451.722 374.694 453.222V462H372.145V453.46C372.145 452.574 371.904 451.932 371.421 451.534C370.938 451.136 370.361 450.938 369.691 450.938C368.861 450.938 368.216 451.193 367.756 451.705C367.296 452.21 367.066 452.861 367.066 453.656V462H364.526V453.298C364.526 452.588 364.304 452.017 363.861 451.585C363.418 451.153 362.841 450.938 362.131 450.938C361.648 450.938 361.202 451.065 360.793 451.321C360.39 451.571 360.063 451.92 359.813 452.369C359.569 452.818 359.446 453.338 359.446 453.929V462H356.898ZM391.841 456.571V448.909H394.398V462H391.892V459.733H391.756C391.455 460.432 390.972 461.014 390.307 461.48C389.648 461.94 388.827 462.17 387.844 462.17C387.003 462.17 386.259 461.986 385.611 461.616C384.969 461.241 384.463 460.688 384.094 459.955C383.73 459.222 383.549 458.315 383.549 457.236V448.909H386.097V456.929C386.097 457.821 386.344 458.531 386.838 459.06C387.333 459.588 387.975 459.852 388.765 459.852C389.242 459.852 389.716 459.733 390.188 459.494C390.665 459.256 391.06 458.895 391.372 458.412C391.691 457.929 391.847 457.315 391.841 456.571ZM407.176 452.105L404.866 452.514C404.769 452.219 404.616 451.937 404.406 451.67C404.201 451.403 403.923 451.185 403.571 451.014C403.218 450.844 402.778 450.759 402.25 450.759C401.528 450.759 400.926 450.92 400.443 451.244C399.96 451.562 399.718 451.974 399.718 452.48C399.718 452.918 399.88 453.27 400.204 453.537C400.528 453.804 401.051 454.023 401.772 454.193L403.852 454.67C405.056 454.949 405.954 455.378 406.545 455.957C407.136 456.537 407.431 457.29 407.431 458.216C407.431 459 407.204 459.699 406.75 460.312C406.301 460.92 405.673 461.398 404.866 461.744C404.065 462.091 403.136 462.264 402.079 462.264C400.613 462.264 399.417 461.952 398.491 461.327C397.565 460.696 396.997 459.801 396.786 458.642L399.25 458.267C399.403 458.909 399.718 459.395 400.196 459.724C400.673 460.048 401.295 460.21 402.062 460.21C402.897 460.21 403.565 460.037 404.065 459.69C404.565 459.338 404.815 458.909 404.815 458.403C404.815 457.994 404.661 457.651 404.355 457.372C404.054 457.094 403.59 456.884 402.965 456.741L400.75 456.256C399.528 455.977 398.625 455.534 398.039 454.926C397.46 454.318 397.17 453.548 397.17 452.616C397.17 451.844 397.386 451.168 397.818 450.588C398.25 450.009 398.846 449.557 399.608 449.233C400.369 448.903 401.241 448.739 402.224 448.739C403.639 448.739 404.752 449.045 405.565 449.659C406.377 450.267 406.914 451.082 407.176 452.105ZM415.419 462.264C414.13 462.264 413.019 461.989 412.087 461.438C411.161 460.881 410.445 460.099 409.939 459.094C409.439 458.082 409.189 456.898 409.189 455.54C409.189 454.199 409.439 453.017 409.939 451.994C410.445 450.972 411.149 450.173 412.053 449.599C412.962 449.026 414.024 448.739 415.24 448.739C415.979 448.739 416.695 448.861 417.388 449.105C418.081 449.349 418.703 449.733 419.255 450.256C419.806 450.778 420.24 451.457 420.558 452.293C420.877 453.122 421.036 454.131 421.036 455.318V456.222H410.63V454.312H418.539C418.539 453.642 418.402 453.048 418.13 452.531C417.857 452.009 417.473 451.597 416.979 451.295C416.49 450.994 415.916 450.844 415.257 450.844C414.541 450.844 413.916 451.02 413.382 451.372C412.854 451.719 412.445 452.173 412.155 452.736C411.871 453.293 411.729 453.898 411.729 454.551V456.043C411.729 456.918 411.882 457.662 412.189 458.276C412.502 458.889 412.936 459.358 413.493 459.682C414.05 460 414.701 460.159 415.445 460.159C415.928 460.159 416.368 460.091 416.766 459.955C417.164 459.812 417.507 459.602 417.797 459.324C418.087 459.045 418.308 458.702 418.462 458.293L420.874 458.727C420.681 459.437 420.334 460.06 419.834 460.594C419.34 461.122 418.718 461.534 417.968 461.83C417.223 462.119 416.374 462.264 415.419 462.264ZM423.407 462V448.909H425.87V450.989H426.007C426.245 450.284 426.666 449.73 427.268 449.327C427.876 448.918 428.563 448.713 429.33 448.713C429.49 448.713 429.677 448.719 429.893 448.73C430.115 448.741 430.288 448.756 430.413 448.773V451.21C430.311 451.182 430.129 451.151 429.867 451.116C429.606 451.077 429.345 451.057 429.083 451.057C428.481 451.057 427.944 451.185 427.473 451.44C427.007 451.69 426.637 452.04 426.365 452.489C426.092 452.932 425.955 453.437 425.955 454.006V462H423.407ZM441.972 452.105L439.662 452.514C439.566 452.219 439.412 451.937 439.202 451.67C438.997 451.403 438.719 451.185 438.367 451.014C438.014 450.844 437.574 450.759 437.046 450.759C436.324 450.759 435.722 450.92 435.239 451.244C434.756 451.562 434.514 451.974 434.514 452.48C434.514 452.918 434.676 453.27 435 453.537C435.324 453.804 435.847 454.023 436.568 454.193L438.648 454.67C439.852 454.949 440.75 455.378 441.341 455.957C441.932 456.537 442.227 457.29 442.227 458.216C442.227 459 442 459.699 441.546 460.312C441.097 460.92 440.469 461.398 439.662 461.744C438.861 462.091 437.932 462.264 436.875 462.264C435.409 462.264 434.213 461.952 433.287 461.327C432.361 460.696 431.793 459.801 431.583 458.642L434.046 458.267C434.199 458.909 434.514 459.395 434.992 459.724C435.469 460.048 436.091 460.21 436.858 460.21C437.693 460.21 438.361 460.037 438.861 459.69C439.361 459.338 439.611 458.909 439.611 458.403C439.611 457.994 439.458 457.651 439.151 457.372C438.85 457.094 438.387 456.884 437.762 456.741L435.546 456.256C434.324 455.977 433.421 455.534 432.835 454.926C432.256 454.318 431.966 453.548 431.966 452.616C431.966 451.844 432.182 451.168 432.614 450.588C433.046 450.009 433.642 449.557 434.404 449.233C435.165 448.903 436.037 448.739 437.02 448.739C438.435 448.739 439.548 449.045 440.361 449.659C441.173 450.267 441.71 451.082 441.972 452.105Z" fill="black" fill-opacity="0.8"/>
<rect x="262" y="594" width="192" height="66" rx="6" fill="#BDE3FF"/>
<path d="M286.63 618.545H289.826L295.383 632.114H295.587L301.144 618.545H304.34V636H301.834V623.369H301.672L296.525 635.974H294.445L289.297 623.361H289.135V636H286.63V618.545ZM311.318 636.29C310.488 636.29 309.738 636.136 309.068 635.83C308.397 635.517 307.866 635.065 307.474 634.474C307.088 633.884 306.895 633.159 306.895 632.301C306.895 631.562 307.037 630.955 307.321 630.477C307.605 630 307.988 629.622 308.471 629.344C308.954 629.065 309.494 628.855 310.091 628.713C310.687 628.571 311.295 628.463 311.915 628.389C312.699 628.298 313.335 628.224 313.824 628.168C314.312 628.105 314.667 628.006 314.889 627.869C315.111 627.733 315.221 627.511 315.221 627.205V627.145C315.221 626.401 315.011 625.824 314.591 625.415C314.176 625.006 313.557 624.801 312.733 624.801C311.875 624.801 311.199 624.991 310.704 625.372C310.216 625.747 309.878 626.165 309.69 626.625L307.295 626.08C307.579 625.284 307.994 624.642 308.54 624.153C309.091 623.659 309.724 623.301 310.44 623.08C311.156 622.852 311.909 622.739 312.699 622.739C313.221 622.739 313.775 622.801 314.361 622.926C314.951 623.045 315.503 623.267 316.014 623.591C316.531 623.915 316.954 624.378 317.284 624.98C317.613 625.577 317.778 626.352 317.778 627.307V636H315.29V634.21H315.187C315.022 634.54 314.775 634.864 314.446 635.182C314.116 635.5 313.693 635.764 313.176 635.974C312.659 636.185 312.04 636.29 311.318 636.29ZM311.872 634.244C312.576 634.244 313.179 634.105 313.679 633.827C314.184 633.548 314.568 633.185 314.829 632.736C315.096 632.281 315.23 631.795 315.23 631.278V629.591C315.139 629.682 314.963 629.767 314.701 629.847C314.446 629.92 314.153 629.986 313.824 630.043C313.494 630.094 313.173 630.142 312.861 630.188C312.548 630.227 312.287 630.261 312.076 630.29C311.582 630.352 311.13 630.457 310.721 630.605C310.318 630.753 309.994 630.966 309.75 631.244C309.511 631.517 309.392 631.881 309.392 632.335C309.392 632.966 309.625 633.443 310.091 633.767C310.557 634.085 311.15 634.244 311.872 634.244ZM323.265 628.227V636H320.716V622.909H323.162V625.04H323.324C323.625 624.347 324.097 623.79 324.739 623.369C325.387 622.949 326.202 622.739 327.185 622.739C328.077 622.739 328.858 622.926 329.529 623.301C330.199 623.67 330.719 624.222 331.089 624.955C331.458 625.687 331.642 626.594 331.642 627.673V636H329.094V627.98C329.094 627.031 328.847 626.29 328.353 625.756C327.858 625.216 327.179 624.946 326.316 624.946C325.725 624.946 325.199 625.074 324.739 625.33C324.285 625.585 323.924 625.96 323.657 626.455C323.395 626.943 323.265 627.534 323.265 628.227ZM338.414 636.29C337.584 636.29 336.834 636.136 336.164 635.83C335.493 635.517 334.962 635.065 334.57 634.474C334.184 633.884 333.99 633.159 333.99 632.301C333.99 631.562 334.133 630.955 334.417 630.477C334.701 630 335.084 629.622 335.567 629.344C336.05 629.065 336.59 628.855 337.186 628.713C337.783 628.571 338.391 628.463 339.01 628.389C339.794 628.298 340.431 628.224 340.919 628.168C341.408 628.105 341.763 628.006 341.985 627.869C342.206 627.733 342.317 627.511 342.317 627.205V627.145C342.317 626.401 342.107 625.824 341.686 625.415C341.272 625.006 340.652 624.801 339.829 624.801C338.971 624.801 338.294 624.991 337.8 625.372C337.311 625.747 336.973 626.165 336.786 626.625L334.391 626.08C334.675 625.284 335.09 624.642 335.635 624.153C336.186 623.659 336.82 623.301 337.536 623.08C338.252 622.852 339.005 622.739 339.794 622.739C340.317 622.739 340.871 622.801 341.456 622.926C342.047 623.045 342.598 623.267 343.11 623.591C343.627 623.915 344.05 624.378 344.38 624.98C344.709 625.577 344.874 626.352 344.874 627.307V636H342.385V634.21H342.283C342.118 634.54 341.871 634.864 341.542 635.182C341.212 635.5 340.789 635.764 340.272 635.974C339.755 636.185 339.135 636.29 338.414 636.29ZM338.968 634.244C339.672 634.244 340.275 634.105 340.775 633.827C341.28 633.548 341.664 633.185 341.925 632.736C342.192 632.281 342.326 631.795 342.326 631.278V629.591C342.235 629.682 342.059 629.767 341.797 629.847C341.542 629.92 341.249 629.986 340.919 630.043C340.59 630.094 340.269 630.142 339.956 630.188C339.644 630.227 339.383 630.261 339.172 630.29C338.678 630.352 338.226 630.457 337.817 630.605C337.414 630.753 337.09 630.966 336.846 631.244C336.607 631.517 336.488 631.881 336.488 632.335C336.488 632.966 336.721 633.443 337.186 633.767C337.652 634.085 338.246 634.244 338.968 634.244ZM353.301 641.182C352.261 641.182 351.366 641.045 350.616 640.773C349.872 640.5 349.264 640.139 348.792 639.69C348.321 639.241 347.968 638.75 347.735 638.216L349.926 637.312C350.079 637.562 350.284 637.827 350.539 638.105C350.801 638.389 351.153 638.631 351.596 638.83C352.045 639.028 352.622 639.128 353.326 639.128C354.292 639.128 355.091 638.892 355.721 638.42C356.352 637.955 356.667 637.21 356.667 636.188V633.614H356.505C356.352 633.892 356.13 634.202 355.841 634.543C355.556 634.884 355.164 635.179 354.664 635.429C354.164 635.679 353.514 635.804 352.713 635.804C351.679 635.804 350.747 635.562 349.917 635.08C349.093 634.591 348.44 633.872 347.957 632.923C347.48 631.969 347.241 630.795 347.241 629.403C347.241 628.011 347.477 626.818 347.949 625.824C348.426 624.83 349.079 624.068 349.909 623.54C350.738 623.006 351.679 622.739 352.73 622.739C353.542 622.739 354.199 622.875 354.699 623.148C355.199 623.415 355.588 623.727 355.866 624.085C356.15 624.443 356.369 624.759 356.522 625.031H356.71V622.909H359.207V636.29C359.207 637.415 358.946 638.338 358.423 639.06C357.9 639.781 357.193 640.315 356.301 640.662C355.414 641.009 354.414 641.182 353.301 641.182ZM353.275 633.69C354.008 633.69 354.627 633.52 355.133 633.179C355.645 632.832 356.031 632.338 356.292 631.696C356.559 631.048 356.693 630.273 356.693 629.369C356.693 628.489 356.562 627.713 356.301 627.043C356.039 626.372 355.656 625.849 355.15 625.474C354.645 625.094 354.02 624.903 353.275 624.903C352.508 624.903 351.869 625.102 351.358 625.5C350.846 625.892 350.46 626.426 350.199 627.102C349.943 627.778 349.815 628.534 349.815 629.369C349.815 630.227 349.946 630.98 350.207 631.628C350.468 632.276 350.855 632.781 351.366 633.145C351.883 633.509 352.52 633.69 353.275 633.69ZM367.811 636.264C366.521 636.264 365.41 635.989 364.478 635.438C363.552 634.881 362.836 634.099 362.331 633.094C361.831 632.082 361.581 630.898 361.581 629.54C361.581 628.199 361.831 627.017 362.331 625.994C362.836 624.972 363.541 624.173 364.444 623.599C365.353 623.026 366.416 622.739 367.632 622.739C368.37 622.739 369.086 622.861 369.779 623.105C370.473 623.349 371.095 623.733 371.646 624.256C372.197 624.778 372.632 625.457 372.95 626.293C373.268 627.122 373.427 628.131 373.427 629.318V630.222H363.021V628.312H370.93C370.93 627.642 370.794 627.048 370.521 626.531C370.248 626.009 369.865 625.597 369.37 625.295C368.882 624.994 368.308 624.844 367.649 624.844C366.933 624.844 366.308 625.02 365.774 625.372C365.245 625.719 364.836 626.173 364.547 626.736C364.262 627.293 364.12 627.898 364.12 628.551V630.043C364.12 630.918 364.274 631.662 364.581 632.276C364.893 632.889 365.328 633.358 365.885 633.682C366.441 634 367.092 634.159 367.836 634.159C368.319 634.159 368.76 634.091 369.157 633.955C369.555 633.812 369.899 633.602 370.189 633.324C370.478 633.045 370.7 632.702 370.853 632.293L373.265 632.727C373.072 633.437 372.725 634.06 372.225 634.594C371.731 635.122 371.109 635.534 370.359 635.83C369.615 636.119 368.765 636.264 367.811 636.264ZM375.799 636V622.909H378.245V625.04H378.407C378.679 624.318 379.125 623.756 379.745 623.352C380.364 622.943 381.105 622.739 381.969 622.739C382.844 622.739 383.577 622.943 384.168 623.352C384.765 623.761 385.205 624.324 385.489 625.04H385.625C385.938 624.341 386.435 623.784 387.117 623.369C387.799 622.949 388.611 622.739 389.554 622.739C390.742 622.739 391.711 623.111 392.461 623.855C393.216 624.599 393.594 625.722 393.594 627.222V636H391.046V627.46C391.046 626.574 390.804 625.932 390.321 625.534C389.838 625.136 389.262 624.938 388.591 624.938C387.762 624.938 387.117 625.193 386.657 625.705C386.196 626.21 385.966 626.861 385.966 627.656V636H383.426V627.298C383.426 626.588 383.205 626.017 382.762 625.585C382.318 625.153 381.742 624.938 381.032 624.938C380.549 624.938 380.103 625.065 379.693 625.321C379.29 625.571 378.963 625.92 378.713 626.369C378.469 626.818 378.347 627.338 378.347 627.929V636H375.799ZM402.196 636.264C400.906 636.264 399.795 635.989 398.863 635.438C397.937 634.881 397.221 634.099 396.715 633.094C396.215 632.082 395.965 630.898 395.965 629.54C395.965 628.199 396.215 627.017 396.715 625.994C397.221 624.972 397.926 624.173 398.829 623.599C399.738 623.026 400.801 622.739 402.017 622.739C402.755 622.739 403.471 622.861 404.164 623.105C404.858 623.349 405.48 623.733 406.031 624.256C406.582 624.778 407.017 625.457 407.335 626.293C407.653 627.122 407.812 628.131 407.812 629.318V630.222H397.406V628.312H405.315C405.315 627.642 405.179 627.048 404.906 626.531C404.633 626.009 404.25 625.597 403.755 625.295C403.267 624.994 402.693 624.844 402.034 624.844C401.318 624.844 400.693 625.02 400.159 625.372C399.63 625.719 399.221 626.173 398.931 626.736C398.647 627.293 398.505 627.898 398.505 628.551V630.043C398.505 630.918 398.659 631.662 398.965 632.276C399.278 632.889 399.713 633.358 400.269 633.682C400.826 634 401.477 634.159 402.221 634.159C402.704 634.159 403.144 634.091 403.542 633.955C403.94 633.812 404.284 633.602 404.573 633.324C404.863 633.045 405.085 632.702 405.238 632.293L407.65 632.727C407.457 633.437 407.11 634.06 406.61 634.594C406.116 635.122 405.494 635.534 404.744 635.83C404 636.119 403.15 636.264 402.196 636.264ZM412.732 628.227V636H410.183V622.909H412.629V625.04H412.791C413.093 624.347 413.564 623.79 414.206 623.369C414.854 622.949 415.669 622.739 416.652 622.739C417.544 622.739 418.326 622.926 418.996 623.301C419.666 623.67 420.186 624.222 420.556 624.955C420.925 625.687 421.11 626.594 421.11 627.673V636H418.561V627.98C418.561 627.031 418.314 626.29 417.82 625.756C417.326 625.216 416.647 624.946 415.783 624.946C415.192 624.946 414.666 625.074 414.206 625.33C413.752 625.585 413.391 625.96 413.124 626.455C412.862 626.943 412.732 627.534 412.732 628.227ZM430.182 622.909V624.955H423.031V622.909H430.182ZM424.949 619.773H427.497V632.156C427.497 632.651 427.571 633.023 427.719 633.273C427.867 633.517 428.057 633.685 428.29 633.776C428.529 633.861 428.787 633.903 429.066 633.903C429.27 633.903 429.449 633.889 429.602 633.861C429.756 633.832 429.875 633.81 429.96 633.793L430.421 635.898C430.273 635.955 430.063 636.011 429.79 636.068C429.517 636.131 429.176 636.165 428.767 636.17C428.097 636.182 427.472 636.062 426.892 635.812C426.313 635.562 425.844 635.176 425.486 634.653C425.128 634.131 424.949 633.474 424.949 632.685V619.773Z" fill="black" fill-opacity="0.8"/>
</svg>
